<svg width="360" height="96" viewBox="0 0 360 96" fill="none" xmlns="http://www.w3.org/2000/svg">
<g clip-path="url(#clip0_3105_4697)">
<path d="M30.9337 89.7272C30.1447 89.5887 29.0458 89.3623 28.5052 88.0568C28.2634 87.4722 28.3118 86.9492 28.6349 86.5514C29.2832 85.7536 30.125 85.1602 31.237 85.3514C32.3271 85.5382 33.1975 86.1777 33.5601 87.1997C33.9689 88.3492 33.2568 89.8107 30.9315 89.7272H30.9337Z" fill="#251918"/>
<path d="M17.8064 79.4614C17.7823 80.5954 16.6262 81.835 15.6021 81.824C14.5955 81.813 13.1955 80.2064 13.1977 79.068C13.2021 77.9998 14.4702 76.9669 15.7515 76.9845C16.9647 77.0021 17.835 78.0526 17.8042 79.4614H17.8064Z" fill="#251918"/>
<path d="M63.8894 92.6018C62.8609 92.5952 62.0257 91.6919 61.9994 90.5578C61.9752 89.4699 63.0719 88.2084 64.0609 88.1886C65.1949 88.1666 66.6499 89.571 66.6081 90.6457C66.5641 91.738 65.3554 92.6105 63.8916 92.6018H63.8894Z" fill="#251918"/>
<path d="M80.3025 84.0216C79.0871 84.2546 77.8805 83.0085 77.8344 81.8722C77.7948 80.903 79.1003 79.8481 80.2124 79.8415C81.4277 79.8349 82.4365 80.7711 82.4387 81.914C82.4409 83.1887 81.5882 84.0282 80.3003 84.0216H80.3025Z" fill="#251918"/>
<path d="M7.90981 66.613C7.54278 68.5471 6.03511 69.1515 4.24831 69.0746C3.29228 69.035 2.92525 68.7866 2.63294 67.9801C2.36481 67.2438 2.70987 66.5889 3.24832 66.1537C4.46809 65.1735 6.85707 65.4087 7.91201 66.613H7.90981Z" fill="#251918"/>
<path d="M24.0349 9.04891C22.4393 9.04891 21.98 8.31265 22.3998 6.81816C22.8525 5.20719 24.4261 4.43137 25.892 5.50829C27.1909 6.46212 27.1184 7.87969 25.6635 8.61814C25.125 8.89067 24.569 9.14781 24.0327 9.05111L24.0349 9.04891Z" fill="#251918"/>
<path d="M74.3048 11.4269C74.1399 12.5104 73.8103 13.4862 72.8015 14.1125C72.1114 14.5411 71.0081 14.1741 70.3729 13.3807C69.8345 12.7082 69.8675 11.895 70.4675 11.2247C70.8762 10.7697 71.34 10.3675 71.863 10.0752C73.3268 9.25765 74.0652 10.1126 74.3026 11.4269H74.3048Z" fill="#251918"/>
<path d="M87.2892 68.1273C87.254 66.9471 87.1397 65.8438 87.9178 64.89C88.3529 64.3559 88.9903 64.1493 89.6408 64.4504C90.6254 64.9054 91.4408 65.49 91.454 66.7295C91.4562 67.0416 91.3771 67.268 91.1661 67.5054C90.1309 68.6636 88.8079 68.8987 87.2892 68.1295V68.1273Z" fill="#251918"/>
<path d="M83.5881 24.2179C83.1266 24.2575 82.6211 24.1718 82.1442 23.8553C81.5486 23.4619 81.2958 22.4773 81.7618 21.9454C82.2804 21.3564 82.8189 20.796 83.5727 20.4466C84.2607 20.1257 84.8628 20.1938 85.3354 20.6685C85.8474 21.1828 86.3375 21.796 86.1024 22.6377C85.709 24.0465 85.4255 24.2289 83.5881 24.2201V24.2179Z" fill="#251918"/>
<path d="M91.8364 37.1672C91.2672 37.1716 90.6892 37.3035 90.1309 37.0903C89.3331 36.7848 88.8035 36.0617 88.8057 35.3233C88.8079 34.4376 89.4123 33.5409 90.2144 33.2332C91.3287 32.8046 92.832 33.4002 93.1595 34.4662C93.2935 34.9035 93.0364 35.3453 92.788 35.7321C92.4826 36.2068 92.1661 36.6749 91.8386 37.1694L91.8364 37.1672Z" fill="#251918"/>
<path d="M91.7969 54.1231C90.9727 54.2088 90.3508 53.7758 89.9508 53.1077C89.6035 52.5275 89.9903 51.4132 90.6299 50.8858C91.2233 50.3978 91.8826 50.0836 92.6958 50.1605C93.8672 50.2726 94.4694 51.1759 94.0936 52.3231C93.6408 53.7077 93.1046 54.1341 91.7969 54.1253V54.1231Z" fill="#251918"/>
<path d="M60.8895 6.49499C59.9774 7.21586 58.9796 7.35213 57.9313 7.28839C57.1335 7.24004 56.4478 6.69939 56.2808 5.9961C56.1093 5.27742 56.5775 4.32359 57.272 3.96974C59.0566 3.06426 60.8346 4.28183 60.8895 6.49279V6.49499Z" fill="#251918"/>
<path d="M5.72085 33.7212C5.71646 35.3651 4.98899 35.8728 3.44395 35.5146C2.75825 35.3563 2.10111 35.1849 1.77584 34.5365C1.31211 33.6179 1.64397 32.7256 2.55825 32.152C3.1055 31.8091 3.74945 31.7212 4.33845 31.4882C4.70548 31.3432 4.99119 31.6267 5.15163 31.9058C5.48789 32.4904 5.88788 33.0728 5.72085 33.7212Z" fill="#251918"/>
<path d="M45.2831 91.3293C45.2831 91.1843 45.2611 91.0326 45.2875 90.892C45.4391 90.0876 45.6149 89.2107 46.4787 88.9337C47.3578 88.6524 48.094 89.2766 48.8347 89.6722C49.061 89.7931 49.0127 90.0436 49.0259 90.2612C49.1006 91.47 48.5973 92.426 47.6852 93.1601C46.7424 93.9183 45.5094 93.0282 45.2809 91.7667C45.2545 91.626 45.2765 91.4744 45.2765 91.3293H45.2831Z" fill="#251918"/>
<path d="M40.7534 5.96978C39.7205 6.1544 38.9996 5.52583 38.5029 4.69727C37.9601 3.78739 38.8963 2.35004 40.0216 2.23356C41.2369 2.10609 42.0633 2.6885 42.5732 4.03574C43.0391 5.26649 42.582 5.94121 41.2633 5.96978C41.1161 5.97198 40.971 5.96978 40.7534 5.96978Z" fill="#251918"/>
<path d="M12.9779 17.3544C12.9493 18.1478 11.846 19.1565 11.0328 19.073C9.33616 18.8994 8.6966 18.0137 8.78671 17.0665C8.87902 16.0994 9.98231 14.972 10.9076 14.9808C11.7449 14.9896 13.0108 16.4401 12.9801 17.3544H12.9779Z" fill="#251918"/>
<path d="M3.74283 51.3142C3.79997 52.0439 3.34723 52.5714 2.76042 52.9538C2.23075 53.301 0.7011 53.1516 0.34506 52.745C0.149457 52.523 0.00220625 52.2329 8.47191e-06 51.8747C-0.00878264 50.8329 0.817582 49.5165 1.77142 49.1538C2.07911 49.0373 2.43515 48.9253 2.6791 49.2242C3.16921 49.8241 3.7648 50.3846 3.74283 51.3164V51.3142Z" fill="#251918"/>
<path d="M85.7837 47.6089C85.7639 45.088 85.3046 42.6551 84.7134 40.2419C84.0914 37.7057 83.0518 35.2969 81.9486 32.9431C80.5376 29.9299 78.7046 27.1695 76.2102 24.908C75.9772 24.697 75.8102 24.3586 75.4058 24.4311C75.0959 24.0838 74.8409 23.6421 74.4607 23.4113C73.5992 22.886 73.1069 21.9146 72.1267 21.5542C71.7992 21.2135 71.5245 20.7938 71.1377 20.5498C69.0871 19.2553 67.2234 17.6817 65.0432 16.5806C62.4345 15.262 59.9136 13.807 57.0763 12.9301C54.0302 11.9895 50.9687 11.1719 47.8434 10.5631C46.6698 10.3345 45.494 10.2268 44.3138 10.0796C43.2786 9.95212 42.2457 9.76531 41.2061 9.72355C38.3754 9.60927 35.5556 9.76311 32.7776 10.3653C30.6766 10.8224 28.5469 11.3191 26.703 12.4268C24.2503 13.8993 21.7866 15.3828 19.6107 17.2751C17.9492 18.4927 16.624 20.0685 15.1515 21.4861C14.8723 21.7542 14.5229 21.9894 14.4855 22.4355C13.8899 22.8355 13.6064 23.4663 13.2789 24.0641C12.4702 25.1564 11.9185 26.3849 11.4372 27.642C10.7339 29.4772 10.2065 31.3651 9.77569 33.2815C9.25042 35.6178 8.52075 37.9013 8.09878 40.2639C7.92076 41.2529 7.81087 42.2485 7.63505 43.2353C7.35813 44.7957 7.06802 46.3605 7.05264 47.9451C7.02627 50.7737 6.93835 53.6044 7.45703 56.4154C7.71197 57.789 7.91637 59.1692 8.26581 60.5208C8.88119 62.8988 9.98448 65.0746 11.2482 67.1449C12.024 68.4174 12.835 69.7053 13.9273 70.7647C14.2108 71.4811 14.802 71.9185 15.3734 72.3756C15.947 73.4152 16.7426 74.2306 17.7932 74.7932C17.9294 74.9602 18.0525 75.1426 18.2064 75.2943C19.4371 76.5119 20.8569 77.4965 22.2745 78.4657C23.9536 79.6129 25.5579 80.8854 27.3909 81.8041C28.8986 82.5601 30.4744 83.1711 31.7491 84.3623C32.1864 84.7711 32.7293 85.1447 33.3359 85.4129C35.4941 86.3689 37.7776 86.8788 40.0853 87.0414C42.0721 87.1821 44.0698 87.4502 46.0786 87.3249C46.9533 87.27 47.8346 87.3205 48.7137 87.3205C48.9665 87.3205 49.2104 87.3008 49.461 87.4128C51.0434 88.1183 52.6412 88.3315 54.3994 88.015C56.795 87.5843 59.2257 87.3711 61.5707 86.659C63.4828 86.0788 65.3421 85.4195 67.0762 84.3667C69.3882 82.9601 71.5047 81.3272 73.5838 79.6019C75.8651 77.7096 77.7178 75.4723 79.4123 73.0833C80.5771 71.4416 81.4123 69.6152 82.2255 67.7735C82.9903 66.0394 83.7441 64.3142 84.309 62.4944C85.4232 58.912 85.821 55.2352 85.9441 51.5165C85.9881 50.211 85.7925 48.899 85.7815 47.6067L85.7837 47.6089ZM75.7157 34.6288C76.764 33.6925 78.2233 34.0288 79.0563 35.3365C79.9486 36.7386 80.2145 38.2727 79.9793 39.9672C78.8497 40.1804 77.8255 40.4573 76.7772 40.0595C75.753 39.6705 75.0365 38.9276 74.7816 37.9167C74.4761 36.7013 74.7398 35.5013 75.7157 34.6288ZM74.1289 46.5012C73.953 46.4221 73.9091 46.4155 73.8893 46.3891C73.2366 45.5473 72.7552 44.6419 73.2475 43.5649C73.597 42.8001 75.0255 42.3496 76.1926 42.5562C76.8079 42.6661 77.4013 42.8485 77.9156 43.2199C78.2607 43.4683 78.4519 43.8419 78.0958 44.1364C76.8717 45.1474 75.6805 46.2506 74.1311 46.499L74.1289 46.5012ZM74.5926 53.956C76.2893 53.4769 78.8409 55.1165 79.1376 56.8637C79.1596 56.9978 79.1222 57.1428 79.1112 57.2879C78.287 57.6703 77.4387 57.8725 76.5948 58.0769C75.8915 58.2461 75.1772 58.3758 74.4563 58.5252C73.7047 57.5582 73.2453 56.5692 73.4014 55.3604C73.4959 54.622 73.8981 54.1516 74.5926 53.956ZM69.7157 26.3629C69.8498 25.1695 71.2388 24.6509 72.2432 25.341C73.6036 26.2772 74.5288 27.5497 75.2299 29.2157C73.4036 29.9893 71.619 30.0156 69.7333 29.8772C69.5751 28.6794 69.5882 27.5102 69.7157 26.3629ZM70.4586 32.5673C71.6542 32.3673 72.8432 32.3761 74.1069 32.6354C74.019 34.5453 72.8366 36.2376 71.3003 36.6639C70.6432 35.9299 69.9333 35.198 69.4959 34.2661C68.9926 33.1914 69.2476 32.7695 70.4586 32.5673ZM68.9619 45.0309C69.2124 45.3539 69.4322 45.7429 69.1597 46.1363C68.8784 46.5429 68.452 46.4594 68.0718 46.2726C65.6718 45.0946 63.0784 44.7342 60.4653 44.4199C58.9708 44.2397 58.0433 43.3759 57.6433 41.9012C58.2169 41.4529 58.8565 41.2771 59.5136 41.4023C62.1663 41.91 64.8081 42.4727 67.2476 43.6946C67.9004 44.0221 68.5047 44.4463 68.9619 45.0331V45.0309ZM65.9707 39.365C63.4982 38.721 60.9642 38.9144 58.4565 38.7628C57.3246 38.6947 56.1862 38.7518 55.0521 38.7188C53.995 38.6903 52.8104 37.2309 52.962 36.2046C53.006 35.9101 53.1928 35.7716 53.4192 35.6376C54.1291 35.2134 54.9159 34.9826 55.7203 35.0573C59.1906 35.3804 62.5466 36.1936 65.7531 37.5716C66.485 37.8859 67.3663 38.1276 67.4828 39.2287C66.9113 39.4837 66.4212 39.4793 65.9685 39.3628L65.9707 39.365ZM67.0586 25.4069C67.1004 25.6574 67.1157 25.9146 67.1333 26.0684C67.1157 27.0948 66.9135 27.9827 66.4894 28.8025C66.0432 29.664 65.3905 29.8618 64.5993 29.3299C63.4257 28.5409 62.6916 27.4201 62.5136 26.0069C62.3598 24.7893 63.329 23.741 64.6696 23.5674C65.9179 23.4069 66.8476 24.1168 67.0586 25.4047V25.4069ZM58.8433 18.5784C59.0851 17.3037 59.4455 17.0685 60.5554 17.7191C61.751 18.4202 63.1312 18.7147 64.2696 19.5212C65.3246 20.2685 65.3553 20.5938 64.2608 21.2069C63.1905 21.8069 62.0718 22.319 60.9642 22.8487C60.6235 23.0113 60.3752 22.8157 60.1048 22.5718C59.1004 21.6685 58.9334 20.4377 58.7048 19.1542C58.7422 19.0026 58.8015 18.7916 58.8433 18.5784ZM56.7093 18.9542C57.4191 20.6465 57.729 22.3718 56.9444 24.1959C56.3071 24.2728 55.8521 24.0179 55.3862 23.8245C54.7115 23.5454 54.0456 23.2487 53.3796 22.9498C52.0983 22.374 51.9774 21.9476 52.8126 20.7916C53.562 19.7542 54.4148 18.8048 55.2895 17.8861C56.0323 17.9213 56.4609 18.3718 56.7071 18.9564L56.7093 18.9542ZM46.4808 13.2993C48.2764 13.5103 50.0566 13.785 51.7247 14.5389C52.1511 14.7323 52.5972 14.8993 52.784 15.3894C52.9642 15.429 53.1269 15.4949 53.1818 15.6971C53.4763 16.8026 52.9928 17.818 51.9247 18.3432C51.9225 18.4026 51.9093 18.4597 51.8851 18.5169C51.8763 18.8004 51.7445 18.952 51.4456 18.9169C51.3796 18.9432 51.3115 18.9608 51.2412 18.9674C51.1401 19.174 51.0016 19.3366 50.7577 19.374C50.3203 19.996 49.5907 20.0333 48.9577 20.2421C48.7115 20.3234 48.505 20.174 48.3203 19.941C46.9665 18.2355 46.0478 16.3257 45.5863 14.2004C45.461 13.618 45.8786 13.229 46.4786 13.2993H46.4808ZM43.4874 15.4004C44.1687 15.3894 44.6918 15.6883 45.0413 16.2554C45.9006 17.6443 45.661 19.1344 45.3577 20.607C45.2786 20.9938 44.894 21.141 44.4918 21.1366C44.0896 21.1322 43.6874 21.1366 43.1512 21.1366C42.7424 21.1168 42.1973 21.1696 41.6523 21.0399C39.9226 20.6245 39.1424 19.0663 40.0149 17.5015C40.7468 16.1872 41.9248 15.429 43.4896 15.4026L43.4874 15.4004ZM34.4941 13.2883C35.4963 13.0004 36.5095 12.6114 37.5248 12.7938C38.4106 12.7235 39.1908 12.851 39.9446 13.1807C40.7973 13.5543 41.0259 13.9938 40.8105 14.8927C40.5314 16.0729 39.8259 16.996 38.993 17.8246C38.5622 18.2531 38.2084 18.7652 37.5842 19.0092C36.9644 19.2509 36.56 19.1344 36.182 18.6004C35.4282 17.5345 34.6545 16.4839 33.8612 15.4488C33.1381 14.5059 33.3337 13.618 34.4919 13.2862L34.4941 13.2883ZM28.1205 17.6531C28.2085 16.0817 29.1733 15.2664 30.6744 15.6817C32.4963 16.1872 33.9688 17.2334 34.6831 19.0883C35.1468 20.2971 34.7798 21.0949 33.5623 21.6245C32.2392 22.2003 30.8436 22.3894 29.3227 22.4509C28.5425 20.8795 28.0282 19.3388 28.1227 17.6509L28.1205 17.6531ZM20.6151 19.974C21.7558 18.8487 22.8569 17.6839 24.0327 16.5982C24.4744 16.1894 25.0722 15.9433 25.6129 15.6466C26.2371 15.3059 26.7184 15.6422 27.1711 15.996C27.5953 18.2531 27.059 20.2861 25.9667 22.2245C25.6195 22.8399 25.1074 23.0421 24.5008 22.8685C23.1426 22.4773 21.7778 22.0905 20.4921 21.4839C20.2877 21.3872 20.1646 21.196 20.0305 20.9498C20.1514 20.5344 20.347 20.2399 20.6129 19.9762L20.6151 19.974ZM22.0173 28.6201C21.1052 27.4069 20.3954 26.1849 20.4415 24.6003C21.9734 23.9959 23.2239 24.6948 24.4898 25.2201C24.5623 26.9717 23.8063 28.031 22.0173 28.6201ZM18.9119 29.9211C17.369 30.5409 15.8108 30.9299 14.0394 31.3343C14.1647 28.8992 14.8108 26.8904 16.7009 25.2223C17.6613 26.7607 18.3932 28.2267 18.9119 29.9211ZM15.9229 33.0134C17.0064 32.8332 18.0899 33.0024 19.2635 33.0486C19.4042 34.6793 18.8283 35.8485 17.6086 36.7716C16.5251 36.4266 15.7141 35.7211 15.1053 34.8002C14.5031 33.8881 14.8372 33.1958 15.9229 33.0156V33.0134ZM16.569 42.4067C17.6459 43.2617 17.824 44.3847 18.0174 45.4902C18.0723 45.8111 18.0481 46.1473 18.0393 46.4748C17.9976 48.1012 17.1668 48.8968 15.5317 48.7847C14.1822 48.6924 12.8658 48.3583 11.5713 47.9891C10.6416 47.7231 10.5251 47.1803 11.1449 46.4506C11.2394 46.3385 11.3405 46.2287 11.457 46.1429C13.1339 44.9144 14.813 43.6902 16.5712 42.4045L16.569 42.4067ZM17.4525 53.6813C19.1075 52.7231 20.4107 53.4066 20.6415 55.3121C20.7997 56.6176 20.725 57.9362 20.6305 59.3736C18.536 59.7868 16.4635 59.8944 14.3822 59.8681C13.5361 59.8571 13.2746 59.4769 13.5559 58.6417C14.2657 56.5362 15.5119 54.8066 17.4525 53.6813ZM10.7757 40.9452C10.9581 39.9672 10.7625 38.9057 11.3867 38.0222C11.3801 37.9562 11.3867 37.8925 11.4064 37.8287C11.4746 37.2903 11.7603 36.8903 12.2438 36.5562C12.6636 36.7013 13.1383 36.7826 13.2064 37.3848L13.2108 37.3892C14.1559 37.7914 14.7471 38.565 15.2438 39.4046C15.4987 39.8331 15.4613 40.2353 14.98 40.6199C13.8833 41.4946 12.0768 42.2485 10.9009 42.1935C10.6328 41.8089 10.6988 41.343 10.7735 40.943L10.7757 40.9452ZM11.5801 57.4022C11.0306 57.9692 10.5185 57.6637 10.3251 56.7604C9.69217 55.0264 9.61525 53.2374 9.72074 51.3649C11.0086 51.1781 12.2306 51.1781 13.4284 51.5275C14.435 51.822 14.8635 52.789 14.3954 53.8044C14.1141 54.4132 13.8636 55.0901 13.2174 55.4593C12.9207 56.3121 12.1647 56.8 11.5823 57.4022H11.5801ZM18.0525 66.679C18.0525 66.7449 18.0437 66.8087 18.0196 66.8702C18.0327 67.1889 17.8745 67.4021 17.6042 67.5471C17.5998 67.6174 17.5866 67.6856 17.5602 67.7493C17.5932 68.0394 17.4569 68.1867 17.1734 68.2086L17.169 68.213C16.8284 68.8108 16.613 68.8086 16.2438 68.2043C15.6108 67.9361 15.2855 67.3295 14.8921 66.8438C14.1668 65.9515 13.2174 65.2219 12.8042 64.0834C12.4438 63.0878 12.7097 62.5472 13.7317 62.1933C14.0504 62.0834 14.3646 62.0351 14.6921 62.0351C15.8218 62.0307 16.9492 62.0307 18.0789 62.0263C18.5228 62.0263 18.9536 62.0571 19.3009 62.4373C19.2789 63.679 18.802 64.8197 18.4393 65.9889C18.4811 66.3142 18.2987 66.5142 18.0503 66.6768L18.0525 66.679ZM25.9316 71.035C25.8107 72.169 25.3843 73.5888 24.8151 74.9602C24.6173 75.4349 24.1843 75.5646 23.6305 75.3163C23.1272 75.0899 22.9338 74.591 22.5206 74.2965C21.8041 73.7844 21.2964 73.0569 20.7272 72.4042C19.9712 71.5361 20.1338 70.9119 21.1074 70.2636C21.8569 69.7647 22.7096 69.6284 23.5711 69.5119C23.8591 69.4724 24.1558 69.4965 24.4415 69.446C25.8854 69.1889 25.9491 69.2372 25.9294 71.035H25.9316ZM22.1184 63.6395C23.3843 62.6571 25.0173 63.134 25.5645 64.6351C25.7689 65.1955 25.8437 65.7559 25.6371 66.3757C24.1997 67.0021 22.7668 67.679 21.1975 67.9076C20.6063 66.5186 21.0899 64.4373 22.1184 63.6395ZM29.7403 69.4878C31.3007 69.7932 32.7601 70.3207 33.8699 71.7844C32.615 73.8086 30.637 74.613 28.492 75.391C28.0744 72.9624 28.4854 71.1009 29.7403 69.4878ZM38.0677 82.6217C37.749 83.1997 37.4611 83.3118 36.9512 82.9228C35.9249 82.136 34.7512 81.6964 33.5359 81.3052C32.437 80.9514 31.3249 80.6107 30.2876 80.0788C29.5381 79.6942 29.4568 79.2151 30.004 78.5404C30.4722 77.9646 31.1073 77.602 31.6853 77.1712C32.848 76.3053 34.0238 75.4547 35.2172 74.6328C36.0062 74.0899 36.3468 74.1822 36.7336 75.0459C37.6018 76.9778 38.1886 78.9844 38.2655 80.9382C38.2171 81.6239 38.3358 82.1382 38.0699 82.6217H38.0677ZM31.5689 64.9384C29.1117 63.2988 26.8217 61.4285 24.8305 59.2395C23.5316 57.811 22.481 56.2044 21.7668 54.3802C20.6833 51.611 19.9294 48.7781 20.0195 45.7869C20.0811 43.7122 20.5008 41.6815 21.103 39.6947C21.169 39.4727 21.2503 39.2859 21.5712 39.1892C22.4525 39.7298 22.9734 40.6859 23.6415 41.4727C25.8129 44.0287 28.4129 45.8726 31.7711 46.3891C34.5644 46.8177 37.004 45.7913 39.2479 44.2155C39.3666 44.132 39.4523 43.9935 39.5798 43.9276C42.2281 42.543 42.3204 40.0661 42.1622 37.5848C42.0852 36.387 41.1907 35.5518 40.2127 34.8266C37.7886 33.0244 32.5952 33.3651 30.437 35.3387C29.2546 36.42 28.9667 37.5826 29.3909 39.0419C29.6942 40.0837 30.2568 40.9562 31.0128 41.7298C31.3513 42.0771 31.848 42.3386 31.8634 43.0023C30.8941 43.3122 29.9667 43.1122 29.0986 42.8001C26.6568 41.9276 25.1096 40.2155 24.9118 37.5892C24.8239 36.4068 25.2283 35.2266 25.9623 34.209C27.2744 32.3914 29.1249 31.4904 31.2458 31.0398C33.7535 30.5057 36.1446 31.031 38.5226 31.8068C39.8809 32.2508 41.1798 32.8112 42.4523 33.4552C44.0281 34.2552 44.7292 35.6222 45.0632 37.2683C45.483 39.3364 44.9665 41.2199 44.0105 43.0375C43.2808 44.4265 42.472 45.7715 41.7182 47.1385C40.6413 49.0924 40.0083 51.2264 40.7973 53.5297C41.105 54.4264 41.7402 55.0747 42.2633 55.8088C42.9775 56.811 42.8039 57.6329 41.716 58.2131C41.1402 58.5208 40.4611 58.5956 39.9644 59.0835C39.3292 59.7032 39.1556 60.3164 39.4699 61.1516C39.6941 61.745 40.0743 62.2219 40.516 62.6724C41.8193 64.0021 43.0611 65.3911 43.9775 67.0196C44.6918 68.2878 45.3028 69.6152 45.0039 71.191C43.6676 71.0943 42.5116 70.5009 41.3666 70.0262C37.96 68.6152 34.6392 66.9955 31.5645 64.9427L31.5689 64.9384ZM31.8172 40.9979C31.5996 40.8683 31.3799 40.7364 31.1799 40.5826C30.4524 40.0287 30.2788 39.3057 30.8634 38.6068C31.7974 37.4903 32.8128 36.4178 34.36 36.1826C35.349 36.0332 36.3424 36.2178 37.1798 36.7189C38.6084 37.5716 38.9292 39.376 37.8765 40.699C36.8963 41.932 35.7424 42.9979 33.8436 43.0924C33.6633 41.8902 32.6809 41.5034 31.8172 40.9957V40.9979ZM40.9776 80.5887C40.4127 78.7975 40.1666 77.0833 40.2061 75.3229C40.2171 74.8459 40.4655 74.6262 40.9028 74.4811C41.3028 74.347 41.7006 74.3295 42.0896 74.3822C43.1907 74.5295 44.3072 74.6284 45.4127 75.0525C44.6061 77.5009 43.2061 79.3074 40.9776 80.5909V80.5887ZM51.3511 84.8986C49.3401 84.9865 47.3621 84.6261 45.3731 84.4239C44.2764 84.3118 43.9687 83.6283 44.5182 82.6568C45.3401 81.1975 46.494 79.9756 47.5006 78.6481C47.8258 78.2195 48.2236 77.8437 48.7137 77.3075C50.4961 79.2415 52.1071 81.1206 52.3643 83.7821C52.4478 84.6414 52.239 84.8634 51.3533 84.9008L51.3511 84.8986ZM54.7027 81.4151C54.5225 81.3689 54.3796 81.3777 54.3247 81.3118C53.2653 80.0481 52.3291 78.6986 51.6588 77.191C51.2829 76.3426 51.5247 75.8987 52.4412 75.6547C53.7247 75.3119 55.0433 75.3734 56.4851 75.4108C56.5115 77.6855 56.1686 79.714 54.7027 81.4151ZM63.0982 83.0261C62.3092 83.3447 59.584 83.6436 58.5312 83.4964C58.3136 82.2832 58.5708 81.1799 58.9356 80.1206C59.4851 78.5294 61.4389 78.2239 62.6081 79.4371C63.3334 80.1887 63.7224 81.0129 63.7729 82.0459C63.7993 82.5843 63.5509 82.8459 63.1004 83.0261H63.0982ZM65.6147 79.2745C65.5685 79.3624 65.4564 79.4173 65.3751 79.4898C64.7355 79.369 64.441 78.8151 64.0235 78.4283C63.1422 77.6107 62.2587 76.7866 61.6279 75.7448C60.8455 74.4547 61.1949 73.6262 62.6521 73.2306C63.4367 73.0174 64.2345 73.0042 65.0366 73.0196C65.4344 73.0284 65.8103 73.1471 65.9092 73.5383C66.3971 75.4767 66.6037 77.4108 65.6147 79.2767V79.2745ZM65.9267 66.1273C65.5773 66.6153 65.0982 67.0284 64.6213 67.4043C62.7861 68.8548 61.0037 70.3779 58.8807 71.4306C58.5993 71.569 58.3488 71.6108 58.0719 71.646C57.6367 71.7031 57.1422 71.6372 56.7774 71.824C55.6433 72.4042 54.7379 71.9515 53.8851 71.2833C52.584 70.2614 51.0676 69.6702 49.5643 69.068C48.0676 68.4702 47.4676 67.8328 47.4742 66.2812C47.4786 65.0636 46.8632 64.145 46.2171 63.2461C45.5401 62.301 45.4896 62.2395 46.2346 61.4197C46.9753 60.6065 47.3533 59.6219 47.4588 58.5604C47.5182 57.9648 47.9555 57.3758 47.5665 56.7516C47.2654 56.2681 46.9291 55.8022 46.6764 55.2945C45.7995 53.5385 45.2237 51.7165 45.6039 49.7165C46.0215 47.5188 47.1357 45.5979 48.0148 43.5803C48.9225 41.5012 49.6808 39.3892 49.0478 37.0485C48.7247 35.8595 47.9335 34.9475 47.3247 33.9321C46.105 31.8947 44.1907 30.6332 42.116 29.6354C40.9688 29.0838 39.6501 29.0596 38.4018 28.8222C36.2633 28.4157 34.0985 28.642 31.9469 28.5563C30.8898 28.5146 29.8458 28.2838 28.7821 28.3563C28.5535 28.3717 28.3579 28.264 28.1469 27.919C29.2106 27.0904 30.3931 26.5761 31.5491 26.0289C32.648 25.508 33.8084 25.1102 34.8853 24.552C35.3337 24.3212 35.7556 24.2135 36.2304 24.2003C37.5864 24.1652 38.9248 24.3476 40.2677 24.4926C43.1665 24.8025 46.0127 25.4201 48.8478 26.0465C51.1313 26.5497 53.3972 27.1431 55.606 28.0091C56.9818 28.5475 58.3532 29.1959 59.8279 29.508C60.3246 29.6135 60.6345 30.0047 60.7883 30.4596C60.9444 30.9189 60.5686 31.1673 60.2697 31.4398C59.3796 32.253 58.2125 32.3101 57.1334 32.5453C55.5378 32.8925 53.9445 33.1958 52.5093 34.0266C51.3511 34.6969 51.1093 35.2969 51.2258 36.6529C51.3906 38.543 52.0324 40.2463 53.1049 41.7826C53.6148 42.5144 54.2192 43.1584 55.0192 43.6441C55.4741 43.9188 55.8279 44.4133 56.2873 44.7342C57.318 45.4572 58.2873 46.3583 59.4301 46.8089C60.7422 47.3253 62.0389 47.8858 63.3466 48.4155C65.7597 49.3935 68.2212 50.3253 69.8014 52.6022C70.3663 53.4154 70.7069 54.2813 70.7794 55.2945C70.9597 57.8088 69.8762 59.9164 68.7861 62.0483C68.019 63.5472 66.8916 64.7823 65.9267 66.1339V66.1273ZM72.9596 76.3185C72.0102 77.8481 70.7069 79.0371 68.9267 79.8701C68.197 77.9668 68.7553 76.147 69.0102 74.3273C68.9992 73.7712 68.9465 73.202 69.441 72.7844C69.4674 72.6679 69.5377 72.5888 69.6542 72.5559C71.0915 71.6262 71.8168 71.6306 72.964 72.5844C73.6146 73.8306 73.7047 75.1185 72.9596 76.3185ZM74.9135 69.8196C73.4871 70.3251 72.2168 70.046 70.9684 69.4108C70.4564 69.1493 70.3179 68.7823 70.3992 68.257C70.6278 66.7559 72.0849 65.5032 73.6124 65.5054C74.5135 65.5054 74.9376 65.8241 75.2036 66.6878C75.5442 67.7911 75.3201 68.8306 74.9113 69.8218L74.9135 69.8196ZM79.1266 65.1142C79.0321 65.6834 78.7684 66.1383 78.2497 66.4219L78.2453 66.4263C77.498 67.0944 77.2717 67.0372 76.6695 66.0263L76.4761 65.7867C75.3816 64.7933 75.1706 62.1604 76.0453 61.1538C77.1596 59.5494 79.109 59.0659 80.9376 60.0351C80.6782 61.8241 80.1156 63.5406 79.1266 65.1164V65.1142ZM82.2299 54.0659C82.1595 54.4681 81.9925 54.7407 81.5683 54.9956C79.7398 54.0989 77.7816 53.5692 76.1222 52.4C74.942 51.5693 74.8827 50.9517 75.9156 49.9605C76.9025 49.0132 78.1926 48.5297 79.3068 47.7759C79.7771 47.4572 80.2585 47.1122 80.8431 46.9605C81.6057 46.7627 81.9486 46.888 82.1486 47.6528C82.276 48.1407 82.4431 48.6286 82.4496 49.1495C82.4738 50.7934 82.5178 52.4352 82.2299 54.0681V54.0659Z" fill="#251918"/>
<path d="M28.1536 27.9212C29.2174 27.0926 30.3998 26.5783 31.5558 26.0311C32.6547 25.5102 33.8151 25.1124 34.892 24.5542C35.3404 24.3234 35.7623 24.2157 36.2371 24.2025C37.5931 24.1674 38.9315 24.3498 40.2744 24.4948C43.1732 24.8047 46.0194 25.4223 48.8545 26.0487C51.138 26.552 53.4039 27.1454 55.6127 28.0113C56.9885 28.5497 58.3599 29.1981 59.8346 29.5102C60.3313 29.6157 60.6412 30.0069 60.795 30.4618C60.9511 30.9211 60.5753 31.1695 60.2764 31.442C59.3863 32.2552 58.2192 32.3123 57.1401 32.5475C55.5445 32.8947 53.9512 33.198 52.516 34.0288C51.3578 34.6991 51.116 35.2991 51.2325 36.6551C51.3973 38.5452 52.0391 40.2485 53.1116 41.7848C53.6215 42.5166 54.2259 43.1606 55.0259 43.6463C55.4808 43.921 55.8347 44.4155 56.294 44.7364C57.3247 45.4594 58.294 46.3605 59.4368 46.8111C60.7489 47.3276 62.0456 47.888 63.3533 48.4177C65.7664 49.3957 68.2279 50.3275 69.8081 52.6044C70.373 53.4176 70.7136 54.2835 70.7861 55.2967C70.9664 57.811 69.8829 59.9186 68.7928 62.0505C68.0257 63.5494 66.8983 64.7845 65.9334 66.1362C65.584 66.6241 65.1049 67.0372 64.628 67.4131C62.7928 68.8636 61.0104 70.3867 58.8874 71.4394C58.6061 71.5779 58.3555 71.6196 58.0786 71.6548C57.6434 71.7119 57.1489 71.646 56.7841 71.8328C55.6478 72.413 54.7446 71.9603 53.8918 71.2921C52.5907 70.2702 51.0743 69.679 49.571 69.0768C48.0743 68.479 47.4743 67.8416 47.4809 66.29C47.4853 65.0724 46.8699 64.1538 46.2238 63.2549C45.5469 62.3098 45.4963 62.2483 46.2413 61.4285C46.982 60.6153 47.36 59.6307 47.4655 58.5692C47.5248 57.9736 47.9622 57.3846 47.5732 56.7604C47.2721 56.2769 46.9358 55.811 46.6831 55.3033C45.8062 53.5473 45.2304 51.7253 45.6106 49.7253C46.0282 47.5276 47.1424 45.6067 48.0215 43.5891C48.9292 41.51 49.6875 39.398 49.0545 37.0573C48.7314 35.8683 47.9402 34.9563 47.3314 33.9409C46.1117 31.9035 44.1974 30.642 42.1227 29.6442C40.9755 29.0926 39.6568 29.0684 38.4085 28.831C36.27 28.4245 34.1052 28.6508 31.9536 28.5651C30.8965 28.5234 29.8525 28.2926 28.7888 28.3651C28.5602 28.3805 28.3646 28.2728 28.1536 27.9278V27.9212Z" fill="#CF181C"/>
<path d="M45.0105 71.1889C43.6743 71.0922 42.5182 70.4988 41.3732 70.0241C37.9666 68.6131 34.6458 66.9933 31.5711 64.9406C29.114 63.3011 26.8239 61.4307 24.8327 59.2418C23.5338 57.8132 22.4833 56.2066 21.769 54.3825C20.6855 51.6133 19.9317 48.7803 20.0218 45.7892C20.0833 43.7144 20.5031 41.6837 21.1053 39.6969C21.1712 39.4749 21.2525 39.2881 21.5734 39.1914C22.4547 39.7321 22.9756 40.6881 23.6437 41.4749C25.8151 44.0309 28.4151 45.8749 31.7733 46.3913C34.5667 46.8199 37.0062 45.7935 39.2501 44.2177C39.3688 44.1342 39.4545 43.9958 39.582 43.9298C42.2303 42.5452 42.3226 40.0683 42.1644 37.587C42.0875 36.3893 41.193 35.5541 40.215 34.8288C37.7908 33.0267 32.5975 33.3673 30.4392 35.3409C29.2568 36.4222 28.9689 37.5848 29.3931 39.0442C29.6964 40.0859 30.259 40.9584 31.0151 41.7321C31.3535 42.0793 31.8502 42.3408 31.8656 43.0046C30.8964 43.3145 29.9689 43.1145 29.1008 42.8024C26.6591 41.9299 25.1118 40.2178 24.914 37.5914C24.8261 36.409 25.2305 35.2288 25.9646 34.2113C27.2766 32.3937 29.1272 31.4926 31.248 31.0421C33.7557 30.508 36.1469 31.0333 38.5249 31.8091C39.8831 32.253 41.182 32.8135 42.4545 33.4574C44.0303 34.2574 44.7314 35.6244 45.0655 37.2706C45.4852 39.3387 44.9688 41.2222 44.0127 43.0397C43.2831 44.4287 42.4743 45.7738 41.7204 47.1408C40.6435 49.0946 40.0106 51.2287 40.7996 53.5319C41.1073 54.4286 41.7424 55.077 42.2655 55.811C42.9798 56.8132 42.8061 57.6352 41.7182 58.2154C41.1424 58.5231 40.4633 58.5978 39.9666 59.0857C39.3314 59.7055 39.1578 60.3187 39.4721 61.1538C39.6963 61.7472 40.0765 62.2241 40.5182 62.6747C41.8215 64.0043 43.0633 65.3933 43.9797 67.0219C44.694 68.29 45.305 69.6175 45.0061 71.1933L45.0105 71.1889Z" fill="#3F6E32"/>
<path d="M38.2678 80.9404C38.2195 81.6261 38.3381 82.1404 38.0722 82.6239C37.7535 83.2019 37.4656 83.314 36.9557 82.925C35.9294 82.1382 34.7558 81.6987 33.5404 81.3075C32.4415 80.9536 31.3294 80.613 30.2921 80.0811C29.5426 79.6965 29.4613 79.2174 30.0086 78.5427C30.4767 77.9668 31.1118 77.6042 31.6899 77.1734C32.8525 76.3075 34.0283 75.457 35.2217 74.635C36.0107 74.0922 36.3514 74.1845 36.7382 75.0482C37.6063 76.98 38.1931 78.9866 38.27 80.9404H38.2678Z" fill="#34569B"/>
<path d="M48.7182 77.3075C50.5006 79.2415 52.1115 81.1206 52.3687 83.7822C52.4522 84.6415 52.2434 84.8635 51.3577 84.9008C49.3467 84.9887 47.3687 84.6283 45.3797 84.4261C44.283 84.314 43.9754 83.6305 44.5248 82.6591C45.3468 81.1998 46.5006 79.9778 47.5072 78.6503C47.8325 78.2218 48.2303 77.8459 48.7204 77.3097L48.7182 77.3075Z" fill="#34569B"/>
<path d="M67.485 39.231C66.9136 39.4859 66.4235 39.4815 65.9708 39.365C63.4983 38.7211 60.9642 38.9145 58.4566 38.7628C57.3247 38.6947 56.1862 38.7518 55.0522 38.7189C53.9951 38.6903 52.8105 37.231 52.9621 36.2046C53.0061 35.9101 53.1929 35.7717 53.4192 35.6376C54.1291 35.2134 54.9159 34.9827 55.7203 35.0574C59.1906 35.3805 62.5466 36.1936 65.7532 37.5716C66.485 37.8859 67.3663 38.1277 67.4828 39.2288L67.485 39.231Z" fill="#D18216"/>
<path d="M81.575 54.9978C79.7464 54.1011 77.7882 53.5714 76.1289 52.4022C74.9486 51.5715 74.8893 50.9539 75.9223 49.9627C76.9091 49.0155 78.1992 48.5319 79.3134 47.7781C79.7838 47.4594 80.2651 47.1144 80.8497 46.9627C81.6123 46.7649 81.9552 46.8902 82.1552 47.655C82.2826 48.1429 82.4497 48.6308 82.4563 49.1517C82.4804 50.7957 82.5244 52.4374 82.2365 54.0703C82.1661 54.4725 81.9991 54.7451 81.575 55V54.9978Z" fill="#34569B"/>
<path d="M33.848 43.0969C33.6678 41.8947 32.6854 41.5079 31.8217 40.998C31.6041 40.8683 31.3843 40.7365 31.1843 40.5826C30.4568 40.0288 30.2832 39.3057 30.8678 38.6068C31.8019 37.4903 32.8172 36.4178 34.3645 36.1827C35.3535 36.0332 36.3469 36.2178 37.1842 36.7189C38.6128 37.5717 38.9337 39.376 37.8809 40.6991C36.9007 41.9321 35.7469 42.998 33.848 43.0925V43.0969Z" fill="#3F6E32"/>
<path d="M20.6328 59.3757C18.5383 59.7889 16.4658 59.8966 14.3845 59.8702C13.5384 59.8592 13.2768 59.479 13.5581 58.6439C14.268 56.5384 15.5142 54.8087 17.4548 53.6835C19.1097 52.7252 20.413 53.4087 20.6438 55.3142C20.802 56.6197 20.7273 57.9384 20.6328 59.3757Z" fill="#FDFEFD"/>
<path d="M29.3206 22.4531C28.5404 20.8817 28.0261 19.3411 28.1206 17.6532C28.2085 16.0818 29.1733 15.2664 30.6744 15.6818C32.4964 16.1873 33.9689 17.2334 34.6832 19.0883C35.1469 20.2971 34.7799 21.0949 33.5623 21.6246C32.2392 22.2004 30.8437 22.3894 29.3228 22.4509L29.3206 22.4531Z" fill="#FDFEFD"/>
<path d="M20.0328 20.9476C20.1537 20.5322 20.3493 20.2377 20.6152 19.974C21.7558 18.8487 22.8569 17.6839 24.0327 16.5982C24.4745 16.1894 25.0723 15.9433 25.6129 15.6466C26.2371 15.3059 26.7184 15.6422 27.1712 15.996C27.5953 18.2531 27.0591 20.2861 25.9668 22.2245C25.6195 22.8399 25.1074 23.0421 24.5009 22.8685C23.1426 22.4773 21.7778 22.0905 20.4921 21.4839C20.2877 21.3872 20.1646 21.196 20.0306 20.9498L20.0328 20.9476Z" fill="#34569B"/>
<path d="M37.5249 12.794C38.4106 12.7236 39.1908 12.8511 39.9447 13.1808C40.7974 13.5544 41.026 13.9939 40.8106 14.8928C40.5315 16.073 39.826 16.9961 38.993 17.8247C38.5623 18.2532 38.2084 18.7653 37.5842 19.0093C36.9645 19.251 36.5601 19.1346 36.1821 18.6005C35.4282 17.5346 34.6546 16.484 33.8612 15.4489C33.1381 14.506 33.3337 13.6181 34.492 13.2863C35.4942 12.9984 36.5073 12.6093 37.5227 12.7918L37.5249 12.794Z" fill="#34569B"/>
<path d="M16.5713 42.4089C17.6482 43.2639 17.8263 44.3869 18.0197 45.4924C18.0746 45.8133 18.0504 46.1496 18.0416 46.477C17.9999 48.1034 17.1691 48.899 15.534 48.7869C14.1845 48.6946 12.8681 48.3605 11.5736 47.9913C10.6439 47.7254 10.5274 47.1825 11.1472 46.4529C11.2417 46.3408 11.3428 46.2309 11.4593 46.1452C13.1362 44.9166 14.8153 43.6924 16.5735 42.4067L16.5713 42.4089Z" fill="#FDFEFD"/>
<path d="M43.1491 21.1344C42.7403 21.1147 42.1952 21.1674 41.6502 21.0377C39.9205 20.6224 39.1403 19.0641 40.0128 17.4993C40.7447 16.185 41.9227 15.4268 43.4875 15.4004C44.1688 15.3895 44.6919 15.6883 45.0414 16.2554C45.9007 17.6444 45.6611 19.1345 45.3578 20.607C45.2787 20.9938 44.8941 21.141 44.4919 21.1366C44.0897 21.1322 43.6875 21.1366 43.1513 21.1366L43.1491 21.1344Z" fill="#FDFEFD"/>
<path d="M57.6434 41.8968C58.217 41.4484 58.8565 41.2726 59.5137 41.3979C62.1664 41.9056 64.8081 42.4682 67.2477 43.6902C67.9004 44.0176 68.5048 44.4418 68.9619 45.0286C69.2125 45.3517 69.4323 45.7407 69.1597 46.1341C68.8784 46.5407 68.4521 46.4572 68.0718 46.2703C65.6719 45.0923 63.0785 44.7319 60.4653 44.4176C58.9708 44.2374 58.0434 43.3737 57.6434 41.899V41.8968Z" fill="#D18216"/>
<path d="M79.9794 39.9695C78.8497 40.1827 77.8256 40.4596 76.7772 40.0618C75.7531 39.6728 75.0366 38.9299 74.7816 37.919C74.4762 36.7036 74.7399 35.5036 75.7157 34.6311C76.764 33.6948 78.2234 34.0311 79.0563 35.3388C79.9486 36.741 80.2146 38.275 79.9794 39.9695Z" fill="#34569B"/>
<path d="M25.936 71.0373C25.8152 72.1714 25.3888 73.5911 24.8196 74.9625C24.6218 75.4373 24.1888 75.5669 23.635 75.3186C23.1317 75.0922 22.9383 74.5933 22.5251 74.2988C21.8086 73.7867 21.3009 73.0593 20.7317 72.4065C19.9757 71.5384 20.1383 70.9142 21.1119 70.2659C21.8614 69.767 22.7141 69.6307 23.5756 69.5143C23.8635 69.4747 24.1602 69.4989 24.4459 69.4483C25.8899 69.1912 25.9536 69.2395 25.9338 71.0373H25.936Z" fill="#34569B"/>
<path d="M65.3818 79.492C64.7422 79.3711 64.4477 78.8173 64.0301 78.4305C63.1488 77.6129 62.2653 76.7887 61.6345 75.747C60.8521 74.4569 61.2016 73.6283 62.6587 73.2327C63.4433 73.0195 64.2411 73.0064 65.0433 73.0217C65.4411 73.0305 65.8169 73.1492 65.9158 73.5404C66.4037 75.4789 66.6103 77.4129 65.6213 79.2788C65.5752 79.3667 65.4631 79.4217 65.3818 79.4942V79.492Z" fill="#FDFEFD"/>
<path d="M67.1334 26.0662C67.1158 27.0926 66.9136 27.9805 66.4895 28.8003C66.0433 29.6618 65.3906 29.8596 64.5994 29.3277C63.4258 28.5387 62.6917 27.4178 62.5137 26.0047C62.3598 24.7871 63.3291 23.7388 64.6697 23.5651C65.918 23.4047 66.8477 24.1146 67.0587 25.4025C67.1004 25.653 67.1158 25.9102 67.1334 26.064V26.0662Z" fill="#FDFEFD"/>
<path d="M56.9445 24.1915C56.3071 24.2685 55.8522 24.0135 55.3863 23.8201C54.7115 23.541 54.0456 23.2443 53.3797 22.9454C52.0984 22.3696 51.9775 21.9432 52.8127 20.7872C53.5621 19.7498 54.4148 18.8004 55.2896 17.8817C56.0324 17.9169 56.461 18.3674 56.7071 18.952C57.417 20.6443 57.7269 22.3696 56.9423 24.1937L56.9445 24.1915Z" fill="#FDFEFD"/>
<path d="M58.7071 19.1498C58.7445 18.9981 58.8038 18.7871 58.8456 18.5739C59.0873 17.2992 59.4477 17.0641 60.5576 17.7146C61.7532 18.4157 63.1334 18.7102 64.2719 19.5168C65.3268 20.264 65.3576 20.5893 64.2631 21.2025C63.1928 21.8025 62.0741 22.3146 60.9664 22.8442C60.6258 23.0069 60.3774 22.8113 60.1071 22.5673C59.1027 21.664 58.9357 20.4333 58.7071 19.1498Z" fill="#34569B"/>
<path d="M45.4172 75.0547C44.6106 77.5031 43.2106 79.3096 40.9821 80.5931C40.4172 78.8019 40.1711 77.0877 40.2106 75.3273C40.2216 74.8503 40.47 74.6306 40.9073 74.4855C41.3073 74.3514 41.7051 74.3339 42.0941 74.3866C43.1952 74.5339 44.3117 74.6328 45.4172 75.0569V75.0547Z" fill="#FDFEFD"/>
<path d="M56.4896 75.4129C56.5159 77.6876 56.1731 79.7162 54.7072 81.4173C54.5269 81.3711 54.3841 81.3799 54.3291 81.314C53.2698 80.0503 52.3336 78.7008 51.6632 77.1931C51.2874 76.3448 51.5292 75.9008 52.4456 75.6569C53.7291 75.314 55.0478 75.3756 56.4896 75.4129Z" fill="#FDFEFD"/>
<path d="M58.5357 83.4987C58.3181 82.2856 58.5752 81.1823 58.9401 80.123C59.4895 78.5318 61.4433 78.2263 62.6126 79.4394C63.3378 80.1911 63.7246 81.0153 63.7774 82.0482C63.8038 82.5867 63.5554 82.8482 63.1049 83.0284C62.3159 83.3449 59.5906 83.646 58.5379 83.4987H58.5357Z" fill="#34569B"/>
<path d="M28.4964 75.3932C28.0788 72.9647 28.4898 71.1032 29.7447 69.49C31.3052 69.7955 32.7645 70.3229 33.8744 71.7867C32.6194 73.8108 30.6414 74.6152 28.4964 75.3932Z" fill="#FDFEFD"/>
<path d="M75.23 29.2157C73.4036 29.9893 71.619 30.0157 69.7333 29.8772C69.5751 28.6794 69.5883 27.5102 69.7157 26.363C69.8498 25.1696 71.2388 24.6509 72.2432 25.341C73.6036 26.2773 74.5289 27.5498 75.23 29.2157Z" fill="#34569B"/>
<path d="M79.1113 57.288C78.2871 57.6704 77.4388 57.8726 76.5948 58.077C75.8915 58.2462 75.1773 58.3759 74.4564 58.5253C73.7048 57.5583 73.2454 56.5693 73.4015 55.3605C73.496 54.6221 73.8982 54.1517 74.5927 53.9561C76.2893 53.477 78.841 55.1166 79.1377 56.8638C79.1596 56.9979 79.1223 57.1429 79.1113 57.288Z" fill="#FDFEFD"/>
<path d="M74.9223 69.824C73.4959 70.3295 72.2256 70.0504 70.9773 69.4152C70.4652 69.1537 70.3267 68.7867 70.408 68.2614C70.6366 66.7603 72.0937 65.5076 73.6212 65.5098C74.5223 65.5098 74.9464 65.8284 75.2124 66.6922C75.553 67.7955 75.3289 68.835 74.9201 69.8262L74.9223 69.824Z" fill="#FDFEFD"/>
<path d="M25.6415 66.3779C24.2041 67.0043 22.7712 67.6812 21.202 67.9098C20.6108 66.5208 21.0943 64.4395 22.1228 63.6417C23.3888 62.6593 25.0217 63.1362 25.569 64.6373C25.7734 65.1977 25.8481 65.7581 25.6415 66.3779Z" fill="#FDFEFD"/>
<path d="M16.7031 25.2223C17.6636 26.7607 18.3954 28.2267 18.9141 29.9211C17.3713 30.5409 15.813 30.9299 14.0416 31.3343C14.1669 28.8992 14.813 26.8904 16.7031 25.2223Z" fill="#34569B"/>
<path d="M74.1091 32.6333C74.0212 34.5432 72.8388 36.2355 71.3025 36.6618C70.6454 35.9278 69.9355 35.1959 69.4981 34.2641C68.9949 33.1893 69.2498 32.7674 70.4608 32.5652C71.6564 32.3652 72.8454 32.374 74.1091 32.6333Z" fill="#FDFEFD"/>
<path d="M74.129 46.5012C73.9531 46.4221 73.9092 46.4155 73.8894 46.3892C73.2367 45.5474 72.7554 44.6419 73.2477 43.565C73.5971 42.8002 75.0257 42.3496 76.1927 42.5562C76.8081 42.6661 77.4015 42.8485 77.9157 43.22C78.2608 43.4683 78.452 43.8419 78.096 44.1364C76.8718 45.1474 75.6806 46.2507 74.1312 46.4991L74.129 46.5012Z" fill="#FDFEFD"/>
<path d="M19.2658 33.0487C19.4065 34.6794 18.8307 35.8486 17.6109 36.7717C16.5274 36.4266 15.7164 35.7211 15.1076 34.8003C14.5054 33.8882 14.8395 33.1959 15.9252 33.0157C17.0087 32.8355 18.0922 33.0047 19.2658 33.0508V33.0487Z" fill="#FDFEFD"/>
<path d="M22.0174 28.6201C21.1053 27.4069 20.3954 26.185 20.4416 24.6004C21.9734 23.996 23.224 24.6949 24.4899 25.2201C24.5624 26.9718 23.8064 28.0311 22.0174 28.6201Z" fill="#FDFEFD"/>
<path d="M13.4328 51.5298C12.235 51.1803 11.0131 51.1803 9.72516 51.3672C9.61966 53.2397 9.69659 55.0287 10.3295 56.7627C10.523 57.666 11.035 57.9715 11.5845 57.4045C12.1669 56.8023 12.9229 56.3144 13.2196 55.4616C13.8658 55.0924 14.1163 54.4177 14.3976 53.8067C14.868 52.7913 14.4394 51.8243 13.4306 51.5298H13.4328Z" fill="#34569B"/>
<path d="M15.2504 39.409C14.7515 38.5694 13.2109 36.4398 12.2482 36.5585C11.8922 36.6552 11.534 37.2574 11.268 37.831C11.1142 38.1629 10.734 39.5694 10.6878 40.6112C10.668 41.0705 10.6417 41.8134 10.9098 42.198C11.5713 42.4529 14.0285 41.5496 15.0394 40.6332C15.4944 40.22 15.5054 39.8376 15.2526 39.409H15.2504Z" fill="#34569B"/>
<path d="M75.652 60.9559C74.7751 61.9625 75.3795 64.5031 76.3619 66.0723C76.9861 67.0701 77.7025 67.1536 78.4102 66.4416C80.3267 64.5075 81.1772 60.9273 80.9465 60.035C80.6827 59.0197 76.7663 59.3515 75.652 60.9559Z" fill="#34569B"/>
<path d="M72.9707 72.5867C71.8235 71.635 71.0982 71.6284 69.6609 72.5581C69.5444 72.5911 69.4762 72.668 69.4477 72.7867C68.9554 73.2042 69.0081 73.7713 69.0169 74.3295C68.762 76.1493 68.2037 77.969 68.9334 79.8723C70.7158 79.0393 72.0169 77.8525 72.9663 76.3207C73.7114 75.1207 73.6213 73.8328 72.9707 72.5867Z" fill="#34569B"/>
<path d="M19.3054 62.4418C19.1823 62.1297 18.5273 62.0286 18.0834 62.0308C16.9537 62.0352 15.8263 62.0352 14.6966 62.0396C14.3691 62.0396 14.0549 62.0879 13.7362 62.1978C12.7142 62.5517 12.4483 63.0901 12.8087 64.0879C13.2197 65.2264 14.0724 65.978 14.7977 66.8703C15.1911 67.356 15.8988 68.3142 16.5493 68.6615C17.1999 69.0087 18.1295 67.3099 18.5054 66.1165C18.8614 64.989 19.512 62.9692 19.3054 62.4418Z" fill="#34569B"/>
<path d="M53.1819 15.6949C53.1269 15.4905 52.9665 15.4268 52.7841 15.3872C52.5973 14.8971 52.1511 14.7301 51.7248 14.5367C50.0566 13.7828 48.2764 13.5081 46.4809 13.2971C45.8809 13.2268 45.4611 13.6158 45.5886 14.1982C46.0479 16.3213 46.9666 18.2334 48.3226 19.9388C48.5072 20.1718 48.7138 20.3212 48.96 20.2399C49.5951 20.0311 50.3226 19.9938 50.7599 19.3718C51.0039 19.3344 51.1423 19.1718 51.2434 18.9652C51.3138 18.9586 51.3819 18.941 51.4478 18.9147C51.7467 18.9498 51.8786 18.7982 51.8874 18.5147C51.9116 18.4597 51.9248 18.4026 51.927 18.341C52.9951 17.8158 53.4786 16.8004 53.1841 15.6949H53.1819Z" fill="#34569B"/>
</g>
<path d="M141.43 54.0865V53.4271H132.763C131.302 54.5576 127.016 57.1011 123.672 57.6664C123.107 57.8077 122.306 57.9019 122.306 57.9019L125.085 63.6013C126.168 63.0832 126.922 61.4817 127.063 58.5142H124.614L124.567 58.9852C129.701 58.2316 137.426 56.2062 141.43 54.0865ZM123.389 58.1374L125.179 62.8006C135.447 61.1991 143.785 59.5976 148.73 58.5142V57.7606C138.038 58.0432 127.817 58.2316 123.389 58.1374ZM144.585 40.3325H145.056V47.6806H146.422C148.683 47.6806 152.499 46.5972 152.546 46.2675V42.6877C153.441 42.4993 153.912 42.0753 154.194 41.7456L147.694 36.9882L144.585 40.3325ZM130.549 46.503V41.6514H147.977V40.3325H130.878L123.342 37.5535V48.5755H124.284C127.204 48.5755 130.549 47.0682 130.549 46.503ZM148.307 44.9015H127.487V46.2204H148.307V44.9015ZM143.125 28.8394L133.987 28.18V37.6477H141.43V30.1583C142.748 29.9699 143.031 29.4989 143.125 28.8394ZM150.049 32.8903L146.799 36.6114H120.704L121.081 37.9303H154.618C155.325 37.9303 155.843 37.6948 155.984 37.1766C153.676 35.3867 150.049 32.8903 150.049 32.8903ZM152.593 28.0387L149.154 31.9482H117.548L117.925 33.2671H157.539C158.245 33.2671 158.81 33.0316 158.905 32.5135C156.455 30.6293 152.593 28.0387 152.593 28.0387ZM151.745 48.7168H152.263C152.075 50.4125 151.651 53.4742 151.321 55.2641L151.698 55.4996C153.865 54.5105 156.973 52.6735 158.858 51.4017C159.847 51.3546 160.271 51.2133 160.647 50.7893L155.042 45.4667L151.745 48.7168ZM122.259 46.032H121.646C121.693 47.9161 119.856 49.5647 118.349 50.177C116.701 50.8836 115.476 52.2495 115.947 54.1807C116.512 56.2062 118.82 56.8656 120.516 56.0649C122.918 54.9815 124.378 51.2133 122.259 46.032ZM154.053 48.7168H122.212V50.0357H154.053V48.7168ZM140.723 55.217L140.487 55.7822C143.973 57.9019 146.799 60.6809 147.883 62.2353C152.876 64.3079 155.89 54.3221 140.723 55.217ZM153.959 65.768L150.615 69.6776H116.606L116.983 70.9964H158.763C159.47 70.9964 159.988 70.7609 160.129 70.2428C157.774 68.3587 153.959 65.768 153.959 65.768ZM143.125 60.9636L133.987 60.3041V70.1957H141.43V62.2824C142.748 62.094 143.031 61.623 143.125 60.9636ZM152.499 60.4925L149.343 64.3079H119.291L119.668 65.6267H156.926C157.586 65.6267 158.104 65.3912 158.245 64.8731C156.078 63.0361 152.499 60.4925 152.499 60.4925ZM147.035 49.8473L144.303 52.8619H123.248L123.625 54.1807H150.85C151.51 54.1807 152.028 53.9452 152.169 53.4271C150.144 51.8727 147.035 49.8473 147.035 49.8473ZM175.579 53.6626V54.9815H198.659V53.6626H175.579ZM175.438 47.0682V48.3871H198.518V47.0682H175.438ZM166.111 34.9157L166.488 36.2346H207.421C208.127 36.2346 208.645 35.9991 208.787 35.4809C206.29 33.2671 202.098 30.017 202.098 30.017L198.377 34.9157H166.111ZM183.728 28.2271V72.9277H185.141C187.826 72.9277 190.746 71.5617 190.746 70.9964V30.4409C192.065 30.2525 192.395 29.7344 192.489 29.075L183.728 28.2271ZM171.528 40.4738V58.0432H172.517C175.391 58.0432 178.499 56.5359 178.499 55.8764V41.7927H199.978V40.4738H178.923L171.528 37.6948V40.4738ZM195.975 40.4738V57.1482H197.246C199.696 57.1482 203.134 55.6409 203.181 55.217V42.8761C204.123 42.6877 204.689 42.2637 204.971 41.8869L198.612 37.0824L195.504 40.4738H195.975ZM181.514 53.6626C178.594 59.8802 172.564 66.8985 164.981 71.0907L165.264 71.6088C176.851 68.1703 185.753 62.2824 190.322 54.4163V53.6626H181.514ZM190.605 53.6626L190.181 53.8981C192.819 62.1882 197.105 67.8877 204.312 71.3262C205.113 67.9819 207.091 65.7209 209.681 65.0144L209.776 64.4963C202.428 63.0361 194.326 59.2679 190.605 53.6626ZM229.276 71.703V54.7931H223.247V72.9277H224.378C227.439 72.9277 229.276 71.9385 229.276 71.703ZM234.976 50.3183L233.044 53.851H214.439L214.816 55.1699H237.095C237.755 55.1699 238.179 54.9344 238.273 54.4163C237.19 52.8148 234.976 50.3183 234.976 50.3183ZM251.085 66.6159V52.8148H244.961V66.4746C244.961 66.9456 244.82 67.2282 244.161 67.2282C243.313 67.2282 239.921 67.0398 239.921 67.0398V67.605C241.947 67.9348 242.653 68.5942 243.172 69.2536C243.737 70.0544 243.878 71.2791 243.925 72.8806C250.19 72.4566 251.085 70.337 251.085 66.6159ZM259.187 42.4521L252.451 38.6368C250.143 42.405 243.219 49.0936 238.508 51.1191C237.896 51.4488 236.671 51.6372 236.671 51.6372L239.498 57.7606C240.675 57.2424 241.523 55.4525 241.711 52.3908H239.168V52.909C245.574 50.6951 254.241 45.8907 257.915 42.4993L256.36 42.7348C257.915 43.3942 258.904 43.0174 259.187 42.4521ZM253.157 37.0353L246.327 33.6439C245.009 35.952 240.911 40.4738 237.849 41.6985C237.331 41.8869 236.295 42.0753 236.295 42.0753L239.121 48.2458C240.345 47.6806 241.193 45.7964 241.335 42.7819H238.697V43.2529C243.077 42.1224 249.154 39.3434 252.027 37.2237L250.425 37.365C251.98 38.0245 252.875 37.6006 253.157 37.0353ZM237.99 51.6843L239.874 57.054C246.422 55.0757 251.933 53.0503 254.853 51.8727L254.806 51.2604C247.835 51.543 240.958 51.7314 237.99 51.6843ZM238.179 42.2637L239.733 47.445C244.49 45.7493 248.824 43.8652 250.944 42.8761L250.896 42.2637C245.715 42.3579 240.44 42.3579 238.179 42.2637ZM251.179 57.1953L250.708 57.4308C252.262 60.4925 253.911 64.6376 254.194 68.3116C259.375 72.8806 264.745 62.3295 251.179 57.1953ZM251.791 47.2566L251.32 47.4921C252.545 49.8002 253.723 53.0974 253.77 55.9707C258.15 60.0215 263.426 51.1662 251.791 47.2566ZM246.233 60.0686L239.262 56.6772C238.367 60.4925 236.059 66.0507 233.044 69.5834L233.468 70.0544C238.179 67.8406 242.041 64.1194 244.443 60.7751C245.574 60.8693 245.998 60.5396 246.233 60.0686ZM254.759 32.0895L248.494 27.8974C245.668 30.7236 239.78 34.7744 234.787 37.1295L235.023 37.6948C241.146 36.5643 247.882 34.3976 251.933 32.4664C253.44 32.7961 254.335 32.6077 254.759 32.0895ZM231.396 47.9632H220.468V49.2821H231.396V47.9632ZM231.396 42.405H220.468V43.7239H231.396V42.405ZM231.396 37.0353H220.468V38.3542H231.396V37.0353ZM231.396 31.7598H220.468V33.0787H231.396V31.7598ZM228.052 31.7598H228.523V54.9344H229.418C230.784 54.9344 233.845 54.9344 233.939 54.9344V33.8323C234.787 33.691 235.353 33.3142 235.635 32.9845L230.454 29.075L228.052 31.7598ZM217.406 29.4518V54.8402H218.396C221.175 54.8402 222.87 54.8402 222.87 54.8402V31.7598H223.483L217.406 29.4518ZM225.037 58.7026L217.924 56.583C217.265 61.2933 215.758 66.1449 214.109 69.3007L214.721 69.7247C218.066 67.5108 221.033 64.0723 223.2 59.6918C224.236 59.6918 224.849 59.2679 225.037 58.7026ZM229.276 57.1011L228.805 57.3366C230.03 59.2679 231.16 62.2353 231.16 64.7789C235.447 68.5471 240.534 60.0686 229.276 57.1011ZM264.321 33.3613L264.698 34.6802H287.26C287.919 34.6802 288.437 34.4447 288.579 33.9265C286.365 31.9482 282.691 29.075 282.691 29.075L279.394 33.3613H264.321ZM274.118 33.3613V63.8368L280.477 62.6593V33.3613H274.118ZM276.709 46.9269V48.2458H286.789C287.448 48.2458 287.966 48.0103 288.108 47.4921C286.271 45.5138 283.021 42.4993 283.021 42.4993L280.1 46.9269H276.709ZM266.158 40.8978V65.4854L271.669 64.4021V42.5464C272.658 42.405 272.941 42.0282 273.035 41.5101L266.158 40.8978ZM263.332 64.0723L266.676 71.232C267.241 71.0436 267.712 70.5254 267.948 69.9131C277.933 65.3912 284.434 61.8585 288.626 59.2679L288.532 58.7497C278.075 61.1991 267.524 63.3658 263.332 64.0723ZM289.615 39.9557L289.144 40.8978C290.651 55.0757 294.137 66.3804 303.181 72.9748C304.028 69.9131 305.818 68.029 309.116 67.3224L309.257 66.8514C298.282 61.9056 291.876 53.0503 289.615 39.9557ZM297.905 39.3434C297.387 53.1916 292.959 65.1086 278.028 72.5508L278.31 73.0219C298.188 67.7464 303.934 55.1228 305.394 39.3434H297.905ZM289.709 28.3684C289.003 36.6585 286.695 45.2783 283.963 51.072L284.481 51.4017C290.274 47.0211 294.372 40.568 297.057 31.5714C298.188 31.5243 298.753 31.1004 298.941 30.488L289.709 28.3684ZM289.427 39.3434V40.6622H307.938C308.644 40.6622 309.163 40.4267 309.304 39.9086C307.09 37.8832 303.369 34.9157 303.369 34.9157L300.119 39.3434H289.427ZM332.29 28.18L332.007 28.4155C333.609 30.2525 335.21 33.0787 335.681 35.8107C341.993 39.9086 347.41 28.0858 332.29 28.18ZM317.358 35.4338V48.1516C317.358 56.3475 317.217 65.6738 313.449 72.9277L313.826 73.2574C323.67 66.5688 324.188 56.1591 324.188 48.1516V35.9049H325.178L317.358 33.2671V35.4338ZM352.45 31.4301L349.2 35.9049H320.703V37.2237H356.925C357.584 37.2237 358.102 36.9882 358.244 36.4701C356.124 34.4447 352.45 31.4301 352.45 31.4301ZM336.153 49.9886L335.729 50.177C336.765 52.8619 337.707 56.3004 337.613 59.5505C342.606 64.5434 349.106 54.5576 336.153 49.9886ZM353.204 38.26L344.961 37.5535V64.9673C344.961 65.5325 344.725 65.768 343.972 65.768C342.888 65.768 337.424 65.4383 337.424 65.4383V66.0507C340.062 66.5217 341.098 67.2282 341.946 68.2174C342.794 69.2536 343.077 70.7609 343.218 72.8806C350.519 72.2211 351.508 69.8189 351.508 65.3912V39.5789C352.638 39.3905 353.11 38.9665 353.204 38.26ZM353.581 42.0753L350.99 46.5972H334.363L334.739 47.9161H356.831C357.49 47.9161 357.961 47.6806 358.102 47.1624C356.595 45.1841 353.581 42.0753 353.581 42.0753ZM334.363 47.9161L328.428 45.7022L326.544 48.1987V72.9277H327.721C330.17 72.9277 332.808 71.7501 332.902 71.3262V48.811C333.797 48.6697 334.221 48.34 334.363 47.9161ZM336.953 39.9086L329.134 36.8469C328.475 41.6985 326.496 49.6589 323.953 54.9815L324.424 55.4054C329.228 51.3075 332.95 45.2783 335.21 40.8036C336.388 40.8036 336.812 40.4267 336.953 39.9086Z" fill="#38322C"/>
<defs>
<clipPath id="clip0_3105_4697">
<rect width="94.2056" height="94.2056" fill="white" transform="translate(0 0.897217)"/>
</clipPath>
</defs>
</svg>
