<svg width="300" height="62" viewBox="0 0 300 62" fill="none" xmlns="http://www.w3.org/2000/svg">
<g clip-path="url(#clip0_3314_9652)">
<path d="M14.0378 14.5173C11.1691 11.9514 7.6386 10.231 3.84215 9.54927V10.2125C3.84215 10.2125 7.49041 10.1309 7.49041 15.3249V42.4555C6.81028 52.6502 0 51.7759 0 51.7759V52.4391C0 52.4391 7.4699 53.2522 14.3257 47.0066L24.8569 36.7118V61.1107C29.651 61.0881 33.573 55.7532 33.539 49.1989V28.2961L42.2238 19.8838V41.8067C42.2238 41.8067 42.1395 45.5562 44.3835 47.2845C51.1524 53.2281 58.3986 52.4406 58.3986 52.4406V51.7774C58.3986 51.7774 51.5864 52.6517 50.9059 42.457V15.3238C50.9059 10.1305 54.5564 10.2114 54.5564 10.2114V9.54927C50.187 10.3423 46.1832 12.494 43.1213 15.6947L33.5383 24.9769V0.888428C28.7438 0.911055 24.8241 6.24377 24.8562 12.798V33.3903L16.1748 41.8049V20.0099C16.1748 20.0099 16.1177 16.1354 14.0378 14.5162" fill="#FF4D00"/>
<path d="M258.445 31.7218C258.445 26.052 260.48 21.0566 264.551 16.7356C268.623 12.4145 273.625 10.2545 279.559 10.2555C282.227 10.2193 284.876 10.7138 287.35 11.7101C289.823 12.7063 292.072 14.1843 293.963 16.0571C297.988 19.9261 300 24.7599 300 30.5585C300 36.4227 297.884 41.5714 293.652 46.0047C289.419 50.4335 284.481 52.6496 278.837 52.6528C273.257 52.6528 268.463 50.6145 264.456 46.5381C260.447 42.455 258.444 37.5158 258.445 31.7207V31.7218ZM279.221 12.2905C271.224 12.2905 264.74 20.9009 264.74 31.5267C264.74 42.1524 271.224 50.7661 279.221 50.7661C287.218 50.7661 293.705 42.1487 293.705 31.5267C293.705 20.9046 287.221 12.2916 279.221 12.2916" fill="#FF4D00"/>
<path d="M217.267 11.9234C219.481 16.5464 222.52 24.4423 226.382 35.6113C228.875 42.7698 230.59 47.1623 231.528 48.7887C232.466 50.4152 233.987 51.3273 236.089 51.5248C236.758 51.5942 237.089 51.8183 237.085 52.1966C237.082 52.48 236.913 52.6184 236.566 52.615L236.142 52.582C234.285 52.4045 231.924 52.3023 229.057 52.2756C224.651 52.2363 221.823 52.2813 220.57 52.4107C219.948 52.4044 219.634 52.2196 219.638 51.8576C219.642 51.5979 219.873 51.4395 220.34 51.3835C222.058 51.2351 223.247 50.9541 223.908 50.5403C224.237 50.3299 224.504 50.0359 224.681 49.6886C224.858 49.3413 224.939 48.9533 224.915 48.5647C224.922 47.6992 224.326 45.5315 223.128 42.0616L221.853 38.2554C216.85 38.9103 211.783 38.9114 206.78 38.2587C204.966 43.0298 204.053 46.0832 204.043 47.4188C204.01 47.9757 204.137 48.5304 204.409 49.0183C204.681 49.5063 205.086 49.9074 205.578 50.175C206.509 50.7446 207.559 51.0918 208.647 51.1891C209.393 51.2485 209.762 51.4822 209.755 51.8709C209.755 52.029 209.633 52.1736 209.391 52.3086C206.161 52.1378 204.213 52.05 203.546 52.0453C200.151 52.0156 197.867 52.0343 196.695 52.1013C196.046 52.098 195.728 51.9136 195.728 51.5515C195.731 51.2318 196.02 51.0322 196.586 50.9554C198.909 50.6755 200.701 49.1246 201.961 46.3027C203.221 43.4808 205.188 38.4045 207.862 31.0739C210.312 24.3993 212.979 18.0114 215.866 11.9101L217.267 11.9234ZM207.048 37.1752C211.866 37.7773 216.741 37.7773 221.559 37.1752C220.831 35.0745 219.109 30.29 217.789 26.8195C216.17 22.6896 215.107 19.9062 214.598 18.4691C212.678 22.2724 209.62 29.9213 207.048 37.1752ZM217.267 11.9234L216.585 10.2542L215.864 11.9104" fill="#FF4D00"/>
<path d="M111.871 46.3411C112.7 46.3405 113.497 46.6674 114.085 47.2499C114.39 47.5363 114.63 47.8842 114.79 48.2702C114.949 48.6563 115.024 49.0717 115.01 49.4889C115.006 49.9026 114.921 50.3116 114.758 50.6923C114.595 51.073 114.359 51.418 114.062 51.7075C113.765 51.997 113.413 52.2253 113.027 52.3793C112.641 52.5333 112.228 52.6099 111.812 52.6049C111.401 52.6065 110.993 52.5237 110.615 52.3616C110.237 52.1996 109.896 51.9618 109.615 51.663C109.323 51.3714 109.093 51.0252 108.937 50.6444C108.782 50.2636 108.704 49.8558 108.708 49.4448C108.712 49.0337 108.798 48.6275 108.961 48.2498C109.124 47.872 109.361 47.5303 109.658 47.2443C109.945 46.9514 110.29 46.7202 110.671 46.565C111.052 46.4098 111.461 46.334 111.872 46.3422" fill="#FF4D00"/>
<path d="M89.983 10.5196C89.6187 10.5162 89.0859 10.5329 88.3778 10.5689C87.1794 10.6216 85.7683 10.6403 84.1445 10.6249C80.4701 10.592 77.5012 10.4691 75.2375 10.2562L74.7244 10.2191C74.2114 10.2128 73.953 10.4532 73.95 10.9469C73.9466 11.329 74.2509 11.5527 74.8732 11.6254C77.4978 11.9051 78.9254 12.9379 79.1561 14.7239C79.3846 16.5148 79.4585 21.8423 79.378 30.7064C79.3086 37.977 79.1796 42.7109 78.9909 44.9081C78.8023 47.1053 78.2109 48.7155 77.2168 49.7386C76.7328 50.2419 76.1466 50.637 75.4973 50.8976C74.8479 51.1581 74.1503 51.2782 73.4507 51.2498V52.6034C75.8744 52.577 78.3354 51.5989 80.8386 49.6299C83.4037 47.6149 84.7056 44.2564 84.7441 39.5542L84.8187 27.9474C84.8517 24.4209 84.9621 21.1797 85.1498 18.2238C85.3375 15.2678 85.792 13.4502 86.5134 12.7709C87.2343 12.0829 88.44 11.747 90.1303 11.7634C90.6867 11.7697 90.9611 11.559 90.9678 11.1328C90.9712 10.7277 90.6434 10.5237 89.9816 10.517" fill="#FF4D00"/>
<path d="M176.423 32.0967L167.617 32.2866L160.431 32.3805L158.747 32.3174C158.069 32.3174 157.73 32.5588 157.729 33.0415C157.729 33.4399 158.037 33.6388 158.651 33.6383L159.637 33.6064C162.62 33.6064 163.15 34.1528 164.072 35.2419C164.993 36.331 165.465 41.2119 165.053 42.896C164.535 45.0186 163.107 46.4664 162.037 47.452C161.066 48.3359 159.973 49.0762 158.79 49.6499C157.508 50.26 156.124 50.6314 154.708 50.7456C149.869 50.9923 146.589 48.6802 143.998 45.5746C140.913 41.5888 139.418 36.709 139.418 31.383C139.438 27.6181 140.327 23.9081 142.016 20.5388C143.634 17.3394 146.126 14.8677 148.704 13.5821C150.613 12.5745 152.776 12.1452 154.928 12.3472C157.508 12.5742 160.974 14.206 162.982 15.9925C164.593 17.4265 166.751 19.1325 168.184 22.892C168.416 23.5627 168.604 23.8877 168.818 23.8877C169.165 23.8877 169.34 23.6362 169.34 23.1332C169.338 22.9437 169.321 22.7547 169.29 22.5678C168.909 18.6469 168.669 15.7321 168.57 13.8232C168.504 12.6079 168.28 12.0002 167.899 12C167.7 12 167.476 12.241 167.227 12.7229C167.137 12.9671 166.975 13.1785 166.762 13.3298C166.549 13.4812 166.296 13.5654 166.034 13.5717C165.669 13.5717 165.04 13.2888 164.147 12.7229C160.969 10.731 156.98 10.2632 154.233 10.2632C150.949 10.2235 147.706 10.9844 144.786 12.4796L144.539 12.6105C141.158 14.5097 138.309 17.2226 136.255 20.5006C134.16 23.8894 133.074 27.7994 133.123 31.7773C133.123 37.6383 135.134 42.4079 138.997 46.4074C138.997 46.4074 139.468 46.8819 139.628 47.0358C143.174 50.5387 147.936 52.5528 152.932 52.6619C156.238 52.7576 160.464 52.5777 163.904 50.6291C166.954 48.9009 168.558 47.8641 170.809 45.3895C171.287 44.8643 171.297 42.3597 171.305 38.7029C171.263 37.74 171.359 36.7762 171.59 35.8403C171.781 35.2742 172.29 34.771 173.116 34.3305C174.12 33.8413 175.211 33.5525 176.327 33.4807C176.878 33.4399 177.155 33.198 177.155 32.7577C177.155 32.3174 176.912 32.0967 176.423 32.0967Z" fill="#FF4D00"/>
</g>
<defs>
<clipPath id="clip0_3314_9652">
<rect width="300" height="60.223" fill="white" transform="translate(0 0.888428)"/>
</clipPath>
</defs>
</svg>
