<svg width="180" height="175" viewBox="0 0 180 175" fill="none" xmlns="http://www.w3.org/2000/svg">
<path d="M3.28775 172.56C3.39209 172.402 3.49644 172.191 3.60079 172.033C3.70514 171.874 3.91383 171.822 4.01818 171.927C4.07035 171.98 5.06166 172.771 6.00079 172.771C6.88775 172.771 7.40949 172.243 7.40949 171.611C7.40949 170.873 6.7834 170.398 5.53122 169.871C4.27905 169.344 3.23557 168.658 3.23557 167.235C3.23557 166.286 3.96601 164.915 6.00079 164.915C7.25296 164.915 8.1921 165.548 8.29644 165.653C8.40079 165.706 8.50514 165.864 8.34862 166.075C8.24427 166.233 8.13992 166.391 8.03557 166.549C7.93123 166.708 7.7747 166.76 7.61818 166.655C7.51383 166.602 6.67905 166.022 5.94862 166.022C4.90514 166.022 4.53992 166.655 4.53992 167.129C4.53992 167.815 5.11383 168.289 6.10514 168.711C7.56601 169.291 8.81818 169.976 8.81818 171.505C8.81818 172.771 7.67036 173.825 6.00079 173.825C4.48775 173.825 3.49644 173.034 3.28775 172.823C3.23557 172.876 3.13122 172.771 3.28775 172.56Z" fill="#36328C"/>
<path d="M13.6699 165.39C13.6699 165.284 13.7743 165.179 13.9308 165.179H18.9395C19.096 165.179 19.2004 165.284 19.2004 165.39V166.075C19.2004 166.18 19.096 166.286 18.9395 166.286H14.9743V168.817H18.3134C18.4177 168.817 18.5743 168.922 18.5743 169.027V169.713C18.5743 169.871 18.4699 169.924 18.3134 169.924H14.9743V172.613H18.9395C19.096 172.613 19.2004 172.718 19.2004 172.823V173.509C19.2004 173.614 19.096 173.72 18.9395 173.72H13.9308C13.7743 173.72 13.6699 173.614 13.6699 173.509V165.39Z" fill="#36328C"/>
<path d="M25.4089 166.339H23.3742C23.2176 166.339 23.1133 166.233 23.1133 166.128V165.442C23.1133 165.337 23.2176 165.231 23.3742 165.231H28.7481C28.9046 165.231 29.0089 165.337 29.0089 165.442V166.128C29.0089 166.233 28.9046 166.339 28.7481 166.339H26.7133V173.614C26.7133 173.72 26.6089 173.825 26.4524 173.825H25.6176C25.5133 173.825 25.3568 173.72 25.3568 173.614V166.339H25.4089Z" fill="#36328C"/>
<path d="M33.4434 165.39C33.4434 165.284 33.5477 165.179 33.7042 165.179H34.539C34.6955 165.179 34.7999 165.284 34.7999 165.39V168.869H39.3912V165.39C39.3912 165.284 39.4955 165.179 39.6521 165.179H40.4868C40.5912 165.179 40.7477 165.284 40.7477 165.39V173.614C40.7477 173.72 40.6434 173.825 40.4868 173.825H39.6521C39.4955 173.825 39.3912 173.72 39.3912 173.614V170.029H34.7999V173.614C34.7999 173.72 34.6955 173.825 34.539 173.825H33.7042C33.5999 173.825 33.4434 173.72 33.4434 173.614V165.39Z" fill="#36328C"/>
<path d="M52.9051 165.231C52.9051 165.126 53.0094 165.021 53.1138 165.021H53.3224C53.3746 165.021 53.5311 165.073 53.5311 165.179L56.1398 171.505H56.192L58.8007 165.179C58.8007 165.126 58.905 165.021 59.0094 165.021H59.2181C59.3224 165.021 59.4268 165.126 59.4268 165.231L60.992 173.561C61.0442 173.72 60.9398 173.825 60.7833 173.825H59.9485C59.8442 173.825 59.7398 173.72 59.6877 173.667L58.7485 168.131H58.6964L56.4529 173.825C56.4529 173.878 56.3485 173.983 56.2442 173.983H56.0355C55.9311 173.983 55.8268 173.931 55.8268 173.825L53.5833 168.131H53.5311L52.6442 173.667C52.6442 173.772 52.5398 173.825 52.4355 173.825H51.6007C51.4442 173.825 51.3398 173.72 51.3398 173.561L52.9051 165.231Z" fill="#36328C"/>
<path d="M64.7502 173.509L68.6111 165.179C68.6633 165.126 68.7676 165.021 68.8198 165.021H68.9241C68.9763 165.021 69.0807 165.073 69.1328 165.179L72.9415 173.509C72.9937 173.667 72.9415 173.825 72.7328 173.825H72.0024C71.8459 173.825 71.7415 173.772 71.6894 173.614L70.9067 171.927H66.785C66.5241 172.507 66.2633 173.034 66.0024 173.614C65.9502 173.72 65.8459 173.825 65.6893 173.825H64.9067C64.8024 173.825 64.698 173.667 64.7502 173.509ZM70.4372 170.873L68.872 167.498H68.8198L67.3067 170.873H70.4372Z" fill="#36328C"/>
<path d="M81.1831 165.021C82.3831 165.021 83.3744 165.442 84.2092 166.18C84.3135 166.286 84.3135 166.444 84.2092 166.549C84.0005 166.76 83.844 166.919 83.6353 167.129C83.5309 167.235 83.4266 167.235 83.3222 167.129C82.7483 166.602 81.9657 166.286 81.1831 166.286C79.4092 166.286 78.0527 167.762 78.0527 169.502C78.0527 171.242 79.4092 172.718 81.1831 172.718C82.2266 172.718 82.957 172.349 83.0614 172.296V170.925H81.8092C81.6527 170.925 81.5483 170.82 81.5483 170.714V169.976C81.5483 169.818 81.6527 169.765 81.8092 169.765H84.1048C84.2092 169.765 84.3135 169.871 84.3135 169.976C84.3135 170.978 84.3135 171.98 84.3135 172.982C84.3135 173.034 84.2614 173.14 84.2092 173.192C84.2092 173.192 82.9048 174.036 81.0787 174.036C78.5744 174.036 76.5918 172.085 76.5918 169.607C76.6961 167.024 78.6788 165.021 81.1831 165.021Z" fill="#36328C"/>
<path d="M89.4785 165.39C89.4785 165.284 89.5829 165.179 89.7394 165.179H90.5742C90.6785 165.179 90.835 165.284 90.835 165.39V173.614C90.835 173.72 90.7307 173.825 90.5742 173.825H89.7394C89.635 173.825 89.4785 173.72 89.4785 173.614V165.39Z" fill="#36328C"/>
<path d="M100.226 165.021C101.478 165.021 102.417 165.442 103.252 166.18C103.357 166.286 103.357 166.444 103.252 166.549L102.678 167.129C102.574 167.235 102.47 167.235 102.365 167.129C101.791 166.602 100.957 166.286 100.174 166.286C98.4 166.286 97.0435 167.762 97.0435 169.502C97.0435 171.242 98.4 172.718 100.174 172.718C101.113 172.718 101.739 172.349 102.313 171.874C102.417 171.769 102.522 171.822 102.626 171.874L103.2 172.454C103.304 172.56 103.252 172.718 103.2 172.771C102.365 173.614 101.27 173.983 100.174 173.983C97.6695 173.983 95.6348 172.033 95.6348 169.555C95.6869 167.024 97.7217 165.021 100.226 165.021Z" fill="#36328C"/>
<path d="M113.376 172.56C113.48 172.402 113.584 172.191 113.689 172.033C113.793 171.874 114.002 171.822 114.106 171.927C114.158 171.98 115.15 172.771 116.089 172.771C116.976 172.771 117.497 172.243 117.497 171.611C117.497 170.873 116.871 170.398 115.619 169.871C114.367 169.344 113.323 168.658 113.323 167.235C113.323 166.286 114.054 164.915 116.089 164.915C117.341 164.915 118.28 165.548 118.384 165.653C118.489 165.706 118.593 165.864 118.436 166.075C118.332 166.233 118.228 166.391 118.123 166.549C118.019 166.708 117.863 166.76 117.706 166.655C117.602 166.602 116.767 166.022 116.036 166.022C114.993 166.022 114.628 166.655 114.628 167.129C114.628 167.815 115.202 168.289 116.193 168.711C117.654 169.291 118.906 169.976 118.906 171.505C118.906 172.771 117.758 173.825 116.089 173.825C114.576 173.825 113.584 173.034 113.376 172.823C113.323 172.876 113.219 172.771 113.376 172.56Z" fill="#36328C"/>
<path d="M127.671 165.021C128.924 165.021 129.863 165.442 130.697 166.18C130.802 166.286 130.802 166.444 130.697 166.549L130.124 167.129C130.019 167.235 129.915 167.235 129.811 167.129C129.237 166.602 128.402 166.286 127.619 166.286C125.845 166.286 124.489 167.762 124.489 169.502C124.489 171.242 125.845 172.718 127.619 172.718C128.558 172.718 129.184 172.349 129.758 171.874C129.863 171.769 129.967 171.822 130.071 171.874L130.645 172.454C130.75 172.56 130.697 172.718 130.645 172.771C129.811 173.614 128.715 173.983 127.619 173.983C125.115 173.983 123.08 172.033 123.08 169.555C123.132 167.024 125.167 165.021 127.671 165.021Z" fill="#36328C"/>
<path d="M135.602 165.39C135.602 165.284 135.706 165.179 135.862 165.179H136.697C136.854 165.179 136.958 165.284 136.958 165.39V168.869H141.549V165.39C141.549 165.284 141.654 165.179 141.81 165.179H142.645C142.749 165.179 142.906 165.284 142.906 165.39V173.614C142.906 173.72 142.802 173.825 142.645 173.825H141.81C141.654 173.825 141.549 173.72 141.549 173.614V170.029H136.958V173.614C136.958 173.72 136.854 173.825 136.697 173.825H135.862C135.758 173.825 135.602 173.72 135.602 173.614V165.39Z" fill="#36328C"/>
<path d="M152.244 165.021C154.748 165.021 156.731 167.024 156.731 169.502C156.731 171.98 154.748 173.931 152.244 173.931C149.739 173.931 147.757 171.98 147.757 169.502C147.705 167.024 149.739 165.021 152.244 165.021ZM152.244 172.718C154.018 172.718 155.479 171.294 155.479 169.502C155.479 167.762 154.018 166.286 152.244 166.286C150.47 166.286 149.009 167.762 149.009 169.502C148.957 171.294 150.47 172.718 152.244 172.718Z" fill="#36328C"/>
<path d="M165.497 165.021C168.001 165.021 169.984 167.024 169.984 169.502C169.984 171.98 168.001 173.931 165.497 173.931C162.992 173.931 161.01 171.98 161.01 169.502C161.01 167.024 162.992 165.021 165.497 165.021ZM165.497 172.718C167.271 172.718 168.731 171.294 168.731 169.502C168.731 167.762 167.271 166.286 165.497 166.286C163.723 166.286 162.262 167.762 162.262 169.502C162.262 171.294 163.723 172.718 165.497 172.718Z" fill="#36328C"/>
<path d="M174.939 165.39C174.939 165.284 175.044 165.179 175.2 165.179H176.035C176.139 165.179 176.296 165.284 176.296 165.39V172.665H179.687C179.844 172.665 179.948 172.771 179.948 172.876V173.562C179.948 173.667 179.844 173.772 179.687 173.772H175.253C175.096 173.772 174.992 173.667 174.992 173.562V165.39H174.939Z" fill="#36328C"/>
<path d="M27.6522 143.509C25.9304 143.14 24.2087 142.666 22.5913 142.139C20.9217 141.611 19.3565 140.873 17.9478 139.872H26.0348C26.1913 139.872 26.4522 139.819 26.4522 139.661C26.4522 139.397 24.4696 137.657 24.1044 137.657C23.7913 137.657 22.8 138.712 22.6435 138.87H18.8348V137.499H23.3217C23.4783 137.499 23.7913 137.446 23.7913 137.236C23.7913 136.919 22.2261 135.496 21.8609 135.496C21.5478 135.496 20.9739 136.234 20.8696 136.392H18.8348V134.968H24.6783C24.8348 134.968 24.9391 134.916 24.9391 134.758C24.9391 134.494 23.4783 133.07 23.113 133.07C22.8 133.07 21.913 133.861 21.8087 134.019H18.8348V133.07C19.0435 133.018 19.5652 132.807 19.5652 132.596C19.5652 132.121 17.113 131.647 16.6957 131.542H24.313C24.2087 131.858 23.687 132.754 23.687 133.07C23.687 133.176 23.7391 133.229 23.8435 133.229C24 133.229 25.6174 132.491 26.4522 132.543C26.7652 132.596 27.0783 132.596 27.4435 132.596C27.8087 132.596 28.1217 132.385 28.1217 132.121C28.1217 131.805 27.7565 131.489 27.4957 131.278C27.2348 131.067 25.8783 129.696 25.2522 129.696C24.9391 129.696 24.2609 130.434 24.0522 130.645H4.43478C4.38261 130.54 4.12174 129.538 3.91304 129.538C3.6 129.538 3.49565 130.223 3.44348 130.434C3.28696 131.067 2.81739 131.594 2.24348 131.963C1.66957 132.332 0.782609 132.754 0.782609 133.492C0.782609 134.072 1.46087 134.599 2.08696 134.599C2.50435 134.599 2.86957 134.494 3.23478 134.283C4.43478 133.703 4.43478 132.701 4.5913 131.647H8.92174C9.07826 132.227 9.13044 132.86 9.13044 133.387V134.125H6.15652C5.53044 134.125 4.85217 134.019 4.17391 133.967L5.37391 135.548L6 135.127H9.13044V136.55C7.46087 136.603 5.79131 136.55 4.12174 136.392L5.32174 137.974L5.94783 137.552H9.13044V138.975H3.65217C2.92174 138.975 2.08696 138.87 1.4087 138.817L2.6087 140.399L3.23478 139.977H8.66087L8.13913 140.61C7.72174 141.084 7.14783 141.453 6.62609 141.822C4.43478 143.404 3.02609 144.248 0.521739 145.513C0.365217 145.566 0 145.724 0 145.882C0 145.987 0.0521739 146.093 0.156522 146.093C0.939131 146.093 5.47826 144.511 6.31304 144.142C6.31304 145.882 6.31304 147.674 6.31304 149.414C6.31304 150.258 6.26087 151.154 6.2087 151.998C7.14783 151.787 8.13913 151.734 9.02609 151.47V150.943H19.3043L19.2 151.734C20.1913 151.629 21.2348 151.418 22.1739 151.26C22.1217 150.627 22.0174 149.942 22.0174 149.309V144.458C23.2696 145.091 24.4174 145.671 25.8261 146.146C26.4522 145.355 27.1304 144.828 28.1217 144.458C28.2783 144.406 28.7478 144.195 28.7478 144.089C28.7478 143.668 27.8609 143.562 27.6522 143.509ZM16.0174 131.542C16.1739 132.174 16.3304 132.754 16.3304 133.387V134.019H11.7913V133.018C12 132.912 12.4174 132.649 12.4174 132.385C12.4174 132.016 9.75652 131.542 9.44348 131.489H16.0174V131.542ZM11.7391 136.445V135.021H16.2783V136.445H11.7391ZM16.2783 137.446V138.87H11.7391V137.446H16.2783ZM11.3217 141.506C11.6348 141.453 12.7304 141.401 12.7304 140.979C12.7304 140.61 11.4783 140.03 11.1652 139.924H16.5913C17.3217 140.926 18.313 141.822 19.2522 142.719H9.18261C9.91304 142.297 10.5913 141.928 11.3217 141.506ZM19.3043 149.836H9.07826V148.307H19.3043V149.836ZM19.3043 147.358H9.07826V146.04L19.3043 146.093V147.358ZM19.3043 145.038H9.07826V143.931L9.33913 143.72H19.3043V145.038Z" fill="#36328C"/>
<path d="M10.332 150.996C10.2798 150.996 10.2276 150.996 10.1755 150.996C8.71459 152.894 5.74068 154.634 3.54937 156.004C3.39285 156.11 3.23633 156.215 3.23633 156.374C3.23633 156.426 3.2885 156.479 3.39285 156.479C3.75807 156.479 7.72328 155.055 8.2972 154.792C9.39285 154.37 10.4363 153.948 11.532 153.474C11.5842 153.474 12.0537 153.263 12.0537 153.263C12.3668 153.21 13.4624 153.316 13.4624 152.841C13.5146 152.314 10.645 150.996 10.332 150.996Z" fill="#36328C"/>
<path d="M18.3645 151.892C17.5297 151.734 16.3297 151.418 15.495 151.418C15.3384 151.418 15.0776 151.47 15.0254 151.629C15.0776 151.787 15.5471 151.945 15.7037 152.05C17.5297 152.841 19.2515 153.948 20.608 155.266C20.921 155.583 21.2341 155.952 21.6515 156.215C21.9645 156.374 22.2254 156.426 22.5384 156.426C23.6863 156.426 23.9471 155.741 23.9471 154.897C23.9993 153.368 19.8254 152.156 18.3645 151.892Z" fill="#36328C"/>
<path d="M30.7313 143.457L31.9835 145.038L32.6096 144.617H45.027C45.1835 144.617 45.4443 144.564 45.4443 144.406C45.4443 144.089 44.453 143.246 44.2443 143.035C44.14 142.929 43.9313 142.719 43.7226 142.719C43.5139 142.719 42.7313 143.509 42.627 143.615V133.492H45.2878C45.4443 133.492 45.653 133.387 45.653 133.229C45.653 132.912 44.2443 131.594 43.9313 131.594C43.6183 131.594 42.7835 132.385 42.627 132.49V129.327C42.8356 129.222 43.6704 128.853 43.6704 128.589C43.6704 128.431 43.6183 128.325 43.5139 128.22C43.0965 127.904 40.2791 127.271 39.7574 127.271C39.6009 127.271 39.34 127.324 39.34 127.482C39.34 127.745 39.7574 128.167 39.7574 128.536C39.8096 129.116 39.8617 129.749 39.8617 130.329V132.438H36.6791V129.169C36.8878 129.064 37.6704 128.694 37.6704 128.484C37.6704 128.325 37.5139 128.167 37.4096 128.115C36.8878 127.798 34.5922 127.271 33.9139 127.271C33.653 127.271 33.4965 127.324 33.4965 127.535C33.4965 127.693 33.9139 128.167 33.9139 128.484C34.0183 129.064 34.0704 129.749 34.0704 130.382V132.543C32.9226 132.596 31.7748 132.438 30.627 132.332L31.827 133.914L32.453 133.492H34.0183V143.615C32.9748 143.72 31.7748 143.562 30.7313 143.457ZM36.7313 133.545H39.9139V135.917H36.7313V133.545ZM36.7313 136.919H39.9139V139.344H36.7313V136.919ZM36.7313 140.346H39.9139V143.668H36.7313V140.346Z" fill="#36328C"/>
<path d="M34.4343 145.355C34.3821 145.355 34.3299 145.407 34.2777 145.407C34.2256 145.46 34.2256 145.513 34.2256 145.513C34.2256 146.989 32.7647 149.836 32.1908 151.154C31.8777 151.84 31.5647 152.578 31.1995 153.263C31.0951 153.474 30.6777 154.212 30.6777 154.423C30.6777 154.476 30.7299 154.528 30.8343 154.581C30.9908 154.528 31.356 154.265 31.4603 154.107C34.0169 152.209 35.2169 149.942 36.9908 147.569C37.1473 147.516 37.9299 147.464 37.9299 147.2C37.9821 146.62 34.7995 145.355 34.4343 145.355Z" fill="#36328C"/>
<path d="M56.6611 137.552C56.3481 137.552 55.2002 138.606 55.0437 138.764H49.3567C49.4089 136.392 49.4089 134.019 49.4611 131.594L49.9828 130.961C51.1828 130.961 52.435 130.909 53.635 130.803C54.6263 130.698 55.6176 130.645 56.6089 130.645C56.922 130.645 57.1828 130.698 57.4959 130.698C57.6524 130.698 57.8089 130.592 57.8089 130.434C57.8089 130.118 55.7741 127.64 55.4611 127.64C55.4089 127.64 55.0959 127.904 55.0437 127.904C54.7828 128.114 54.4698 128.325 54.1568 128.431C52.9568 129.116 51.235 129.538 49.9307 130.012C49.3046 129.802 46.8524 129.011 46.2785 129.011C46.122 129.011 45.9654 129.116 45.9654 129.222C45.9654 129.432 46.3307 129.96 46.3828 130.223C46.5915 131.014 46.5394 132.701 46.5394 133.597C46.5394 136.023 46.4872 138.395 46.435 140.715C46.3828 143.878 46.2785 147.042 44.8698 149.994C44.0872 151.681 42.7307 153.737 41.2176 155.003C41.1133 155.108 40.748 155.319 40.748 155.477C40.748 155.583 40.8524 155.635 40.9567 155.635C41.0611 155.635 41.4263 155.424 41.5307 155.372C44.1394 154.001 46.6959 152.103 47.7394 149.572C49.2002 145.934 49.0959 143.615 49.3046 139.977H52.1741C52.1741 144.036 52.2263 148.149 52.1741 152.208C52.1741 153.421 52.0176 154.686 51.9133 155.899C53.1133 155.794 54.1046 155.635 55.2524 155.214C55.2002 154.054 55.0437 152.894 55.0437 151.681V140.504L55.6176 139.924H58.3828C58.5915 139.924 58.8524 139.819 58.8524 139.608C58.8524 139.239 57.0263 137.552 56.6611 137.552Z" fill="#36328C"/>
<path d="M43.4099 148.729L41.2186 145.882L39.0273 148.729L41.2186 151.576L43.4099 148.729Z" fill="#C9A063"/>
<path d="M154.277 136.339L153.755 136.761L152.398 135.074C153.39 135.127 154.485 135.285 155.477 135.285H157.146V129.433C157.146 128.853 157.094 128.167 156.781 127.64C156.729 127.535 156.625 127.377 156.625 127.218C156.625 127.06 156.938 127.008 157.042 127.008C157.564 127.008 160.329 127.798 160.694 128.062C160.851 128.167 160.851 128.326 160.851 128.484C160.851 128.747 160.172 129.116 159.964 129.169V135.232H160.538C160.694 135.021 161.633 133.861 162.103 133.861C162.311 133.861 162.677 134.125 162.833 134.283C163.094 134.547 164.503 135.601 164.503 135.918C164.503 136.181 164.138 136.287 163.929 136.287H159.964V138.765C161.581 139.239 163.72 140.399 163.72 142.033C163.72 142.35 163.564 142.666 163.407 142.982C163.146 143.457 162.572 143.562 162.051 143.562C161.633 143.562 161.216 143.51 161.059 143.141C160.903 142.771 160.851 142.297 160.798 141.928C160.746 140.979 160.485 140.135 159.911 139.292V150.943C159.911 152.367 160.068 153.843 160.172 155.267C159.077 155.583 157.929 155.741 156.833 155.899L156.99 152.631C157.042 151.998 157.094 151.629 157.094 150.943V144.669C156.259 146.251 155.372 148.202 153.129 150.047C153.077 150.1 152.607 150.205 152.607 149.836C152.607 149.784 153.703 147.306 153.807 146.937C154.381 145.513 154.903 144.09 155.32 142.613C155.79 141.032 156.311 139.45 156.572 137.868L156.833 136.287H154.277V136.339Z" fill="#36328C"/>
<path d="M167.113 143.352C167.008 142.983 166.852 142.561 166.852 142.192C166.852 142.139 166.904 142.034 167.008 142.034C167.165 142.034 167.269 142.034 167.321 142.192C168.261 143.826 169.252 145.355 170.347 146.884C171.13 145.724 171.913 144.195 172.382 142.93L172.695 141.928C172.747 141.717 172.747 140.979 172.904 140.979C173.426 140.979 176.608 142.192 176.608 142.877C176.608 143.088 175.93 143.299 175.721 143.352C174.626 145.25 173.582 147.148 172.174 148.888C174.052 150.838 175.878 152.156 178.487 153.422C178.695 153.527 179.791 153.949 179.791 154.213C179.791 154.582 178.643 154.529 178.33 154.582C177.547 154.634 176.4 155.531 175.826 156.005C173.634 154.582 171.861 152.789 170.347 150.786C169.982 151.155 169.617 151.471 169.2 151.84C168.469 152.473 167.53 153 166.591 153.527C165.078 154.371 163.408 155.003 161.687 155.478C161.374 155.583 160.747 155.794 160.487 155.794C160.33 155.794 160.33 155.741 160.33 155.583C160.33 155.425 161.426 154.898 161.582 154.792C164.347 153.264 167.269 151.049 168.939 148.677C168.261 146.937 167.582 145.197 167.113 143.352Z" fill="#36328C"/>
<path d="M164.71 143.984C164.554 144.142 163.98 144.722 163.719 144.722C163.615 144.722 163.562 144.669 163.562 144.564C163.562 144.353 163.98 143.72 164.084 143.562C165.076 141.875 167.11 137.657 167.11 135.812C167.11 135.759 167.11 135.707 167.162 135.654C167.58 135.601 170.815 136.867 170.815 137.499C170.815 137.816 170.293 137.921 170.032 137.974C168.258 140.188 167.006 142.086 164.71 143.984Z" fill="#36328C"/>
<path d="M177.39 131.752C177.703 131.752 178.016 132.016 178.173 132.174L179.738 133.492C179.894 133.598 179.999 133.809 179.999 133.967C179.999 134.178 179.842 134.283 179.581 134.283H165.494L164.973 134.652L163.512 133.018C164.242 133.07 165.025 133.176 165.755 133.176H175.512C175.668 133.176 177.025 131.752 177.39 131.752Z" fill="#36328C"/>
<path d="M173.581 136.445C173.686 136.445 174.677 136.814 174.886 136.867C176.294 137.341 177.755 138.079 178.642 139.187C179.007 139.661 179.686 140.61 179.686 141.19C179.686 142.192 179.425 143.035 178.12 143.035C176.659 143.035 176.555 141.875 176.346 140.979C176.138 140.294 175.825 139.608 175.407 138.976C174.833 138.079 174.416 137.605 173.633 136.867C173.581 136.761 173.477 136.656 173.477 136.603C173.372 136.498 173.477 136.445 173.581 136.445Z" fill="#36328C"/>
<path d="M170.815 131.12L173.581 128.906L170.815 126.691L167.998 128.906L170.815 131.12Z" fill="#C9A063"/>
<path d="M125.945 140.873L125.424 132.28C125.371 131.541 125.371 130.698 125.163 129.96C125.111 129.696 124.798 129.274 124.798 129.011C124.798 128.905 124.798 128.747 124.954 128.747C125.319 128.747 127.563 129.591 128.032 129.749C129.024 129.116 130.537 128.167 131.163 127.271C131.685 127.271 133.406 129.222 133.406 129.538C133.406 129.696 132.885 129.802 132.676 129.802C132.519 129.802 132.311 129.749 132.102 129.749C131.006 129.749 128.971 130.223 127.98 130.382L128.137 133.123H129.598C129.65 133.018 130.328 132.28 130.485 132.28C130.798 132.28 132.154 133.598 132.154 133.914C132.154 134.125 131.632 134.125 131.528 134.125H128.189L128.293 136.866H129.963C130.119 136.761 130.85 136.076 131.058 136.076C131.371 136.076 132.571 137.341 132.571 137.657C132.571 137.921 132.05 137.868 131.893 137.868H128.293L128.45 140.768H142.641L142.745 138.026H141.128L140.606 138.606L139.354 136.866C140.502 136.972 141.702 137.077 142.902 137.025L143.111 134.23H141.285L140.763 134.758L139.458 133.07C140.137 133.123 140.867 133.229 141.493 133.229C142.067 133.229 142.589 133.229 143.163 133.229L143.319 130.223H141.598L141.024 130.751L139.771 129.064C140.867 129.169 142.119 129.222 143.215 129.222C143.424 128.958 143.998 128.167 144.467 128.167C144.937 128.167 146.345 129.116 146.658 129.222C146.815 129.327 147.337 129.643 147.337 129.854C147.337 130.276 146.554 130.645 146.241 130.856L145.354 140.768H145.98C146.137 140.557 146.867 139.924 147.18 139.924C147.806 139.924 149.789 142.033 149.789 142.508C149.789 143.14 148.537 143.035 148.119 143.088C146.398 143.193 145.145 144.617 144.832 144.617C144.728 144.617 144.624 144.511 144.624 144.406C144.624 144.247 145.771 142.139 145.928 141.875H125.215C125.163 143.035 125.006 143.984 123.545 144.406C123.389 144.458 123.232 144.511 123.076 144.511C122.241 144.511 121.771 144.037 121.771 143.351C121.771 142.349 122.867 142.191 123.441 141.137C123.806 140.504 123.806 140.188 123.858 139.503C123.858 139.45 123.911 139.292 124.015 139.292C124.276 139.292 124.902 140.61 125.006 140.821H125.945V140.873Z" fill="#36328C"/>
<path d="M137.842 144.933H129.024L128.502 145.46L127.198 143.72C127.876 143.773 128.607 143.826 129.233 143.826H138.259C138.416 143.72 139.459 142.771 139.72 142.771C140.294 142.771 142.694 144.722 142.694 145.144C142.694 145.408 142.276 145.566 142.068 145.566L140.816 145.671C139.25 145.829 138.311 146.304 137.059 147.095C137.216 147.147 137.842 147.2 137.842 147.411C137.842 147.622 137.476 147.833 137.32 147.886H145.72C145.981 147.622 146.816 146.673 147.285 146.673C147.702 146.673 149.007 148.044 149.216 148.202C149.372 148.36 149.581 148.518 149.581 148.782C149.581 148.993 149.163 149.045 149.007 149.045H137.32V153.158C137.32 153.632 137.32 154.159 137.216 154.634C137.111 154.95 136.746 155.319 136.485 155.583C135.859 156.163 133.772 156.321 132.937 156.374C132.833 155.372 132.311 154.423 131.163 154.107C131.007 154.054 130.224 153.896 130.224 153.738C130.224 153.632 130.329 153.474 130.485 153.474C131.32 153.527 132.416 153.685 133.198 153.685C134.189 153.685 134.294 153.105 134.294 152.367V148.993H123.963L123.442 149.52L122.189 147.78C122.816 147.833 123.546 147.938 124.224 147.938H134.346V147.78C134.346 147.358 134.085 146.989 134.085 146.673C134.085 146.567 134.189 146.462 134.294 146.462C134.816 146.462 135.494 146.673 136.016 146.778C136.537 146.198 137.216 145.513 137.842 144.933Z" fill="#36328C"/>
<path d="M132.467 134.916C132.415 134.863 132.311 134.81 132.311 134.758C132.311 134.652 132.363 134.6 132.467 134.6C132.989 134.6 134.972 135.601 135.493 135.865C135.859 135.39 136.693 134.336 136.746 133.809C137.111 133.756 139.354 135.232 139.354 135.549C139.354 135.865 138.467 135.97 138.206 136.023C137.893 136.287 137.58 136.55 137.215 136.814C137.893 137.394 138.885 138.185 138.885 139.081C138.885 139.661 138.415 140.294 137.685 140.294C136.798 140.294 136.433 139.397 136.119 138.87C135.963 138.606 135.806 138.343 135.65 138.079C135.076 138.448 131.998 140.346 131.58 140.346C131.476 140.346 131.424 140.294 131.424 140.188C131.424 140.135 131.476 140.083 131.528 140.03C132.624 139.028 133.615 137.974 134.606 136.919C133.98 136.181 133.302 135.601 132.467 134.916Z" fill="#36328C"/>
<path d="M138.051 131.014L135.859 128.167L133.668 131.014L135.859 133.808L138.051 131.014Z" fill="#C9A063"/>
<path d="M93.8627 146.198C94.4888 145.934 96.5757 141.559 96.6801 141.506C98.141 138.712 99.6018 135.97 101.115 133.228C101.167 133.123 101.271 133.018 101.48 133.018C101.532 133.018 101.637 133.123 101.637 133.176C101.637 133.334 101.115 134.599 101.063 134.863C100.541 136.181 100.071 137.499 99.6018 138.817C98.9757 140.557 98.2975 142.349 97.6714 144.089C97.254 145.302 96.7323 146.567 96.7323 147.885C96.7323 148.676 96.8366 149.414 97.1496 150.152C97.4627 150.943 97.8801 151.681 97.8801 152.472C97.8801 153.474 97.4627 154.423 96.1062 154.423C93.9149 154.423 94.2279 152.156 94.2279 150.89C94.2279 149.941 94.2279 149.045 93.9149 148.202C93.5497 147.147 92.141 146.883 92.141 146.514C91.9845 146.251 93.3931 146.356 93.8627 146.198Z" fill="#36328C"/>
<path d="M119.374 140.61C119.114 140.346 117.653 138.975 117.287 138.975C117.027 138.975 115.618 140.346 115.409 140.557H111.705H108.731H102.418C101.687 140.557 100.905 140.452 100.227 140.399L101.427 142.139L102 141.664H108.47C107.948 143.72 106.435 145.935 105.183 147.674C104.557 148.518 103.827 149.625 102.992 150.311C102.574 150.627 102.157 150.891 101.687 151.101L102.992 154.107C106.853 153.052 110.818 152.261 114.783 151.418C115.044 152.472 115.148 154.317 116.818 154.317C118.018 154.317 118.592 153.579 118.592 152.63C118.592 150.1 115.514 147.569 113.322 146.146C113.166 146.04 112.487 145.566 112.279 145.566C112.122 145.566 112.122 145.671 112.122 145.776C112.122 145.987 112.435 146.356 112.592 146.515C113.531 147.78 114.105 149.098 114.627 150.521C111.444 150.627 108.314 150.732 105.131 150.838C106.644 149.309 108.209 147.78 109.514 146.146C110.192 145.355 110.87 144.458 111.444 143.668C111.653 143.562 112.54 143.299 112.54 143.035C112.54 142.613 110.87 141.822 110.505 141.664H119.009C119.322 141.664 119.635 141.559 119.635 141.295C119.74 140.979 119.531 140.768 119.374 140.61Z" fill="#36328C"/>
<path d="M111.704 134.283H118.33C118.59 134.283 118.799 134.125 118.799 133.861C118.799 133.703 118.695 133.492 118.538 133.387C118.225 133.123 116.817 131.7 116.399 131.7C116.086 131.7 114.834 132.965 114.625 133.176H111.808H108.834H105.025C104.295 133.176 103.512 133.07 102.834 133.018L104.034 134.705L104.608 134.283H108.834H111.704Z" fill="#36328C"/>
<path d="M97.4621 129.432L95.2708 126.585L93.0273 129.432L95.2708 132.279L97.4621 129.432Z" fill="#36328C"/>
<path d="M97.4621 137.077L95.2708 134.23L93.0273 137.077L95.2708 139.924L97.4621 137.077Z" fill="#C9A063"/>
<path d="M71.5805 138.185C71.1631 139.345 69.9631 140.399 68.6066 141.084L68.3457 141.032C69.0761 139.503 69.4414 138.343 69.337 137.025C69.2848 136.445 69.1805 136.392 69.7022 136.55L71.4761 137.236L71.9979 137.552C71.8935 137.816 71.6848 137.868 71.5805 138.185Z" fill="#36328C"/>
<path d="M89.0078 151.524C89.0078 150.944 89.2687 150.364 89.2687 149.784C89.2687 149.678 89.2165 149.573 89.06 149.573C88.8513 149.573 88.6426 150.311 88.5382 150.469C88.3295 151.049 87.6513 152.578 87.0774 152.894C86.7643 153.105 83.8426 153.053 83.2165 153.053C82.7469 153.053 80.5034 153.158 80.1382 152.789C80.0861 152.683 80.0861 152.367 80.0861 152.262V150.153C80.3991 149.942 80.8687 149.837 80.8687 149.467C80.8687 149.204 80.5556 149.098 80.3469 149.046L77.8948 148.36L78.0513 148.149H83.06L83.0078 148.835L82.5904 148.677C82.2774 149.942 82.2252 150.364 80.9208 150.996L82.0687 152.525C83.373 151.945 84.2078 151.787 85.6687 151.418C85.773 152.051 85.5643 152.367 86.3991 152.367C86.9208 152.367 87.3382 151.945 87.3382 151.524C87.3382 150.785 86.3469 150.206 85.7208 149.837C85.6165 149.784 85.4078 149.626 85.1991 149.731C85.1991 149.837 85.5121 150.838 85.5121 150.891L83.06 150.996L84.0513 149.995C84.2078 149.942 84.573 149.837 84.573 149.678C84.573 149.415 83.6861 149.046 83.4774 148.94L85.9817 148.466C85.9295 147.78 85.773 146.99 85.773 146.304C85.773 145.197 85.7208 145.092 85.7208 144.037C85.9295 143.879 86.4513 143.721 86.7121 143.404C86.7643 143.352 86.9208 143.194 86.8687 143.141C86.5556 142.719 85.1991 141.875 84.6252 141.454C84.4687 141.348 84.2078 141.348 83.9991 141.559C83.8426 141.612 83.0078 142.245 82.9556 142.35H76.1208L77.4252 141.665C77.6861 141.717 78.5208 141.77 78.5208 141.401C78.5208 141.296 78.3121 141.085 78.0513 140.926C79.1991 140.136 80.1904 139.134 80.3469 138.343C80.3991 138.027 80.8165 137.921 80.9208 137.71L80.5034 137.394L78.7295 136.709C78.2078 136.498 78.26 136.603 78.3121 137.183C78.4687 138.449 78.0513 139.608 77.7382 140.768C77.6861 140.716 77.5817 140.663 77.5295 140.663C77.2687 140.557 76.7991 140.188 76.4339 139.977L77.3208 139.767L77.1643 138.923V138.132L77.5295 137.552L77.4774 137.236L75.3382 136.603C75.0252 136.656 75.0252 136.867 75.0252 137.025L75.2339 137.974V139.134L75.0774 140.347L75.8078 140.188C75.7556 140.294 75.7556 140.452 75.7556 140.452C75.5469 141.137 74.2948 141.981 73.7208 142.508H72.8861C72.8861 142.508 72.4165 142.35 72.3643 142.35C71.9469 142.192 70.2252 141.665 69.7556 141.665C69.7034 141.665 69.4947 141.717 69.4947 141.77C69.4947 141.875 69.5469 141.981 69.5991 142.034C69.7556 142.297 69.7556 142.666 69.8078 142.93C69.8078 143.246 69.86 143.563 69.86 143.932V147.517C69.86 148.149 69.7034 148.835 69.6513 149.415C70.5904 149.257 71.5295 149.151 72.4165 148.94V148.255H74.7643C74.0339 150.364 72.573 151.945 69.7035 153.474C68.6078 154.002 66.1556 154.74 65.06 155.267C65.0078 155.32 64.6426 155.425 64.6426 155.478C64.6426 155.53 65.1121 155.53 65.1643 155.583C66.6252 155.636 70.7991 154.74 72.6774 153.738C74.8165 152.578 76.2252 151.471 77.3208 149.309C77.3208 150.522 77.3208 152.209 77.3208 153.474C77.3208 154.054 77.6339 154.634 78.2078 154.951C79.0947 155.372 79.3556 155.372 80.3469 155.372H85.8252C86.7121 155.372 87.5991 155.425 88.3817 155.161C89.5295 154.74 89.7382 154.16 90.1034 153.211C89.2687 152.525 89.0078 152.473 89.0078 151.524ZM79.0426 143.984C79.1991 143.879 79.6687 143.826 79.6687 143.563C79.6687 143.404 79.5121 143.352 79.3034 143.246H83.1121V144.617H79.0426V143.984ZM79.0426 145.513H83.1121V147.042H79.0426V145.513ZM76.4339 147.042H72.5208V145.513H76.4339V147.042ZM76.4339 144.459H72.5208V143.563L72.9382 143.246H76.4861V144.459H76.4339Z" fill="#36328C"/>
<path d="M69.8582 135.971L72.206 135.918V139.239C72.206 139.239 71.9451 140.979 71.893 141.559C72.7799 141.454 73.9278 140.979 74.7104 140.663C74.6582 140.083 74.5538 138.87 74.5538 138.87V135.971H77.6321C77.8408 135.971 78.0495 135.865 78.0495 135.707C78.0495 135.496 77.1104 134.705 76.5365 134.231C76.3799 134.073 76.1712 134.125 76.1191 134.125L74.9712 134.916L74.5538 134.969V134.02C74.7625 133.914 75.493 133.545 75.493 133.334C75.493 132.702 72.5712 132.175 72.3104 132.175C72.1017 132.175 72.0495 132.28 72.0495 132.438C72.0495 132.596 72.1538 132.755 72.206 132.965C72.2582 133.387 72.2582 133.809 72.2582 134.231V135.022H70.0669C69.493 135.022 68.8669 134.969 68.293 134.916L69.3364 136.392L69.8582 135.971Z" fill="#36328C"/>
<path d="M79.563 136.129H81.0238V139.345C81.0238 139.925 80.9195 140.557 80.8673 141.137C81.7543 141.032 82.6934 140.979 83.5282 140.663C83.476 139.872 83.3717 139.134 83.3717 138.396V136.129H87.7543C88.0151 136.129 88.1717 136.023 88.1717 135.812C88.1717 135.443 86.9195 134.653 86.6065 134.442C86.5543 134.389 86.3456 134.336 86.1891 134.336C85.876 134.336 84.8847 134.969 84.7282 135.127H83.3717V134.283C83.6325 134.178 84.4151 133.809 84.4151 133.493C84.4151 133.018 81.4412 132.333 81.076 132.333C80.8673 132.333 80.8673 132.438 80.8673 132.596C80.8673 132.807 80.9195 132.913 80.9717 133.124C81.0238 133.545 81.0238 134.02 81.0238 134.442V135.18C80.6065 135.18 79.7717 135.232 79.2499 135.18C78.6238 135.127 78.2586 134.969 77.7891 134.916L78.8847 136.445L79.563 136.129Z" fill="#36328C"/>
<path d="M59.8942 153.949C59.2681 154.318 59.5812 154.529 60.1029 154.476C60.9899 154.423 62.5551 153.949 62.5551 153.949C63.0247 153.79 64.0681 153.158 64.1203 153.052C65.0073 152.314 65.8942 151.523 66.4681 150.522C67.0421 149.52 67.3551 148.307 67.5116 147.147C67.6681 146.304 67.7203 145.408 67.7725 144.511C67.9812 142.35 68.0334 140.135 68.0855 137.921C68.0855 137.605 68.0855 137.236 68.0855 136.919C68.0855 135.39 68.0855 133.651 68.0855 132.438L68.5551 131.805H89.3203C89.5812 131.805 89.8942 131.594 89.8942 131.384C89.8942 130.962 87.7029 129.275 87.1812 129.275C86.7638 129.275 85.7203 130.487 85.4594 130.698H69.4421L68.3464 130.329C67.929 130.224 65.5812 129.38 65.1116 129.38C65.0073 129.38 64.9029 129.38 64.9029 129.486C64.9029 129.644 64.9551 129.749 65.0073 129.907C65.1638 130.329 65.2681 130.856 65.2681 131.331C65.3203 133.176 65.2681 134.916 65.2681 136.761C65.2681 139.186 65.3203 139.714 65.2681 141.981C65.216 143.088 65.216 144.248 65.1638 145.355C65.1116 145.988 65.0594 146.62 65.0073 147.253C64.9551 147.886 64.8507 148.466 64.5899 149.045C64.3812 149.52 63.8594 150.311 63.5464 150.733C63.2334 151.102 62.7116 151.682 62.5029 151.892C61.616 152.789 60.9899 153.263 60.2594 153.632" fill="#36328C"/>
<path d="M87.0783 138.817L85.7218 137.025L84.3652 138.817L85.7218 140.557L87.0783 138.817Z" fill="#36328C"/>
<path d="M110.66 141.19C110.295 141.19 109.982 141.19 109.617 141.137C109.356 141.137 109.095 141.084 108.886 141.032C108.573 140.926 108.573 140.663 108.625 140.504C108.678 140.135 108.991 139.925 109.095 139.608C109.356 139.081 108.886 138.976 109.043 138.396C109.095 138.237 109.147 138.079 109.199 137.921C109.304 137.394 109.095 136.814 109.147 136.287C109.199 135.812 109.304 135.285 109.356 134.81C109.46 131.594 109.669 129.064 109.878 125.848C109.93 125.426 111.025 125.584 111.025 126.006C111.025 126.902 110.973 127.798 111.025 128.642C111.078 129.433 111.182 130.171 111.234 130.962C111.286 131.331 111.339 131.7 111.339 132.069C111.443 132.807 111.286 133.492 111.547 134.178C111.756 134.758 111.965 136.814 111.808 137.236C111.652 137.657 111.547 138.132 111.547 138.606C111.547 138.923 111.652 139.608 111.547 139.925C111.599 139.766 111.704 139.819 111.756 139.925C112.017 140.241 112.434 140.557 112.225 140.821C112.069 141.032 111.599 141.19 111.078 141.243C110.973 141.19 110.817 141.19 110.66 141.19Z" fill="#36328C"/>
<path d="M11.6328 127.746L14.398 125.531L17.1632 127.746L14.398 129.96L11.6328 127.746Z" fill="#C9A063"/>
<path d="M75.2871 127.746L78.0523 125.531L80.8175 127.746L78.0523 129.96L75.2871 127.746Z" fill="#C9A063"/>
<path d="M90.9902 83.7754L126.834 112.245H110.66L90.9902 83.7754Z" fill="#C9A063"/>
<path d="M83.4785 19.929C83.4264 20.298 83.1133 20.5616 82.8003 20.5616C82.7481 20.5616 82.6959 20.5616 82.6438 20.5616C82.2785 20.4562 82.0177 20.0344 82.0698 19.6126L84.1568 9.43727C84.1568 9.38455 84.209 9.33183 84.209 9.2791C83.4264 8.91005 82.6959 8.48827 82.0177 7.96105L71.1133 29.1026C70.9568 29.3662 70.7481 29.5244 70.4872 29.5244C70.3829 29.5244 70.2264 29.4717 70.122 29.419C69.7568 29.2081 69.6525 28.7336 69.8611 28.3645L80.8177 7.22294C80.8698 7.17022 80.922 7.1175 80.922 7.06477C80.1394 6.32667 79.409 5.53583 78.7829 4.63956C78.7829 4.79772 78.6785 4.95589 78.5742 5.06134L62.3481 21.7742C62.1916 21.9324 62.0351 21.9851 61.8264 21.9851C61.6177 21.9851 61.4611 21.8797 61.3046 21.7215C61.0438 21.4052 61.0438 20.9307 61.3046 20.6144L77.5307 3.90145C77.6872 3.69056 77.9481 3.63784 78.1568 3.74328C77.4785 2.5834 77.009 1.37079 76.6959 0.0527344L11.8438 51.3514V112.245H50.4003L89.1133 81.3502V10.4917C87.8612 10.439 86.6611 10.1754 85.5655 9.7536L83.4785 19.929ZM51.8611 30.3152L57.1829 24.8321C57.4959 24.5158 57.9133 24.5685 58.2264 24.8849C58.4872 25.2012 58.4872 25.6757 58.2264 25.992L52.9046 31.4751C52.7481 31.6333 52.5916 31.686 52.3829 31.686C52.1742 31.686 52.0177 31.5806 51.8611 31.4224C51.5481 31.1061 51.6003 30.6316 51.8611 30.3152ZM48.0524 36.431L29.8959 55.1473C29.7394 55.3055 29.5829 55.3582 29.3742 55.3582C29.1655 55.3582 29.009 55.2528 28.8524 55.0946C28.5916 54.7783 28.5916 54.3038 28.8524 53.9875L47.0611 35.3238C47.3742 35.0075 47.7916 35.0602 48.1046 35.3766C48.3655 35.6402 48.3133 36.1147 48.0524 36.431ZM67.6177 35.7456L50.0351 69.6986C49.8785 69.9622 49.6698 70.1204 49.409 70.1204C49.3046 70.1204 49.1481 70.0677 49.0438 70.015C48.6785 69.8041 48.5742 69.3296 48.7829 68.9605L66.3655 35.0075C66.5742 34.6384 66.9916 34.4803 67.3568 34.6912C67.6698 34.9021 67.8264 35.3766 67.6177 35.7456ZM73.5655 68.2751L71.4785 78.4505C71.4264 78.8196 71.1133 79.0832 70.8003 79.0832C70.7481 79.0832 70.6959 79.0832 70.6438 79.0832C70.2785 78.9777 70.0177 78.556 70.0698 78.1342L72.1568 67.9588C72.2612 67.537 72.6264 67.2734 73.0438 67.3789C73.409 67.4316 73.6698 67.8534 73.5655 68.2751ZM80.5046 34.4276L76.5394 53.7766C76.4872 54.1456 76.1742 54.4092 75.8611 54.4092C75.809 54.4092 75.7568 54.4092 75.7046 54.4092C75.3394 54.3038 75.0785 53.882 75.1307 53.4602L79.0959 34.1112C79.2003 33.6894 79.5655 33.4258 79.9829 33.5313C80.3481 33.584 80.5568 34.0058 80.5046 34.4276Z" fill="#36328C"/>
<path d="M103.304 0C103.095 0.843554 102.835 1.63439 102.522 2.3725C102.626 2.42522 102.73 2.47794 102.782 2.53066L119.008 19.2436C119.322 19.5599 119.322 20.0344 119.008 20.3507C118.852 20.5089 118.695 20.6144 118.487 20.6144C118.33 20.6144 118.122 20.5616 117.965 20.4035L101.791 3.74327C101.217 4.74499 100.539 5.64127 99.7563 6.4321C99.8606 6.48482 100.017 6.59027 100.069 6.74843L111.026 27.89C111.235 28.2591 111.078 28.7336 110.765 28.9445C110.661 28.9972 110.556 29.0499 110.4 29.0499C110.139 29.0499 109.878 28.8917 109.774 28.6281L98.8172 7.48654C98.8172 7.43382 98.765 7.3811 98.765 7.32838C98.0345 7.96104 97.1998 8.48827 96.3128 8.96276L98.3998 19.0327C98.5041 19.4545 98.2432 19.8762 97.8259 19.9817C97.7737 19.9817 97.7215 19.9817 97.6693 19.9817C97.3563 19.9817 97.0432 19.7181 96.9911 19.349L95.0085 9.54271C93.7041 10.0699 92.3476 10.3863 90.8867 10.439V81.2975L129.6 112.193H168.156V51.3514L103.304 0ZM104.922 54.0402C104.869 54.0402 104.817 54.0402 104.765 54.0402C104.452 54.0402 104.139 53.7766 104.035 53.4075L100.069 33.9531C99.965 33.5313 100.226 33.1095 100.643 33.0041C101.008 32.8986 101.426 33.1622 101.53 33.584L105.495 53.0385C105.548 53.513 105.287 53.9348 104.922 54.0402ZM109.982 78.8196C109.93 78.8196 109.878 78.8196 109.826 78.8196C109.513 78.8196 109.2 78.556 109.148 78.1869L107.061 68.0116C106.956 67.5898 107.217 67.168 107.635 67.0626C108 66.9571 108.417 67.2207 108.522 67.6425L110.608 77.8179C110.608 78.2924 110.348 78.7142 109.982 78.8196ZM122.139 23.5668C122.4 23.2505 122.869 23.2505 123.182 23.5141L128.504 28.9972C128.817 29.3135 128.817 29.788 128.504 30.1043C128.348 30.2625 128.191 30.368 127.982 30.368C127.826 30.368 127.617 30.3152 127.461 30.1571L122.139 24.674C121.878 24.3576 121.878 23.8831 122.139 23.5668ZM131.843 69.5405C131.739 69.5932 131.635 69.646 131.478 69.646C131.217 69.646 130.956 69.4878 130.852 69.2242L113.269 35.2711C113.061 34.9021 113.217 34.4276 113.53 34.2167C113.895 34.0058 114.313 34.1639 114.522 34.533L132.104 68.4861C132.313 68.8551 132.208 69.3296 131.843 69.5405ZM151.513 53.7766C151.356 53.9348 151.2 54.0402 150.991 54.0402C150.835 54.0402 150.626 53.9875 150.469 53.8293L132.313 35.1129C132 34.7966 132 34.3221 132.313 34.0058C132.574 33.6894 133.043 33.6894 133.356 33.9531L151.513 52.6694C151.774 52.9858 151.774 53.4603 151.513 53.7766Z" fill="#36328C"/>
</svg>
